<svg xmlns="http://www.w3.org/2000/svg" xmlns:xlink="http://www.w3.org/1999/xlink" version="1.1" x="0px" y="0px" viewBox="0 0 100 125" enable-background="new 0 0 100 100" xml:space="preserve"><g><path d="M3.1,79.7h6.5V62.5h5.8v17.3h6.5V33.6H3.1V79.7z M9.6,40.1h5.8V56H9.6V40.1z"/><circle cx="12.5" cy="25.8" r="6.1"/><path d="M42.8,33.6H37L24.5,57.8l0,4.7h12.2v17.3h6.5V62.5h12.2l0-4.7L42.8,33.6z M32.7,56l7.3-13.9L47.2,56H32.7z"/><circle cx="39.9" cy="25.8" r="6.1"/><circle cx="75.2" cy="42" r="6"/><path d="M73.5,73.9c-5.1,0-9.2-4.1-9.2-9.2c0-3.5,1.9-6.7,5.1-8.2l-2.9-5.8c-5.3,2.7-8.6,8.1-8.6,14c0,8.6,7,15.7,15.7,15.7   c4.8,0,9.2-2.1,12.2-5.9l-5-4C78.9,72.6,76.3,73.9,73.5,73.9z"/><polygon points="78.5,61.4 78.5,51.1 72,51.1 72,67.9 85.7,67.9 91.1,78.9 96.9,76.1 89.7,61.4  "/></g><text x="0" y="115" fill="#000000" font-size="5px" font-weight="bold" font-family="'Helvetica Neue', Helvetica, Arial-Unicode, Arial, Sans-serif">Created by HeadsOfBirds</text><text x="0" y="120" fill="#000000" font-size="5px" font-weight="bold" font-family="'Helvetica Neue', Helvetica, Arial-Unicode, Arial, Sans-serif">from the Noun Project</text></svg>