<?xml version="1.0" encoding="UTF-8" standalone="no"?> <!-- Created with Vectornator for iOS (http://vectornator.io/) --><!DOCTYPE svg PUBLIC "-//W3C//DTD SVG 1.1//EN" "http://www.w3.org/Graphics/SVG/1.1/DTD/svg11.dtd">
<svg height="100%" style="fill-rule:evenodd;clip-rule:evenodd;stroke-linecap:round;stroke-linejoin:round;" xmlns:xlink="http://www.w3.org/1999/xlink" xmlns="http://www.w3.org/2000/svg" xml:space="preserve" width="100%" xmlns:vectornator="http://vectornator.io" version="1.1" viewBox="0 0 3840 2160">
<metadata>
<vectornator:setting key="DimensionsVisible" value="1"/>
<vectornator:setting key="New" value="1"/>
<vectornator:setting key="SnapToPoints" value="0"/>
<vectornator:setting key="GuidesVisible" value="1"/>
<vectornator:setting key="RulersVisible" value="1"/>
<vectornator:setting key="CMYKEnabledKey" value="0"/>
<vectornator:setting key="SnapToEdges" value="0"/>
<vectornator:setting key="DisplayWhiteBackground" value="1"/>
<vectornator:setting key="SnapToGuides" value="1"/>
<vectornator:setting key="GridSpacing" value="36"/>
<vectornator:setting key="SnapToGrid" value="1"/>
<vectornator:setting key="Units" value="Pixels"/>
<vectornator:setting key="DynamicGuides" value="1"/>
</metadata>
<defs/>
<g id="Layer 1" vectornator:layerName="Layer 1">
<path stroke="#e1e8eb" stroke-width="1" d="M1387.37+747L1387.37+747L1387.37+765L1387.37+765L1387.37+747Z" fill="#cbd4d8" stroke-linecap="butt" opacity="1" stroke-linejoin="round"/>
<g opacity="1">
<g opacity="1">
<path stroke="#f5eeee" stroke-opacity="0" stroke-width="1" d="M1075.6+506.288L1801.1+949.937L1801.1+1393.59L1445.08+1175.88L1075.6+949.937L1075.6+506.288Z" fill="#ffffff" stroke-linecap="butt" opacity="1" stroke-linejoin="round"/>
<path stroke="#f5eeee" stroke-opacity="0" stroke-width="1" d="M1075.6+506.288L1801.1+62.6392L2526.59+506.288L1801.1+949.937L1075.6+506.288Z" fill="#ffffff" stroke-linecap="butt" opacity="1" stroke-linejoin="round"/>
<path stroke="#adb1b2" stroke-opacity="0" stroke-width="1" d="M1075.6+506.288L1801.1+949.937L1801.1+1393.59L1075.6+949.937L1075.6+506.288Z" fill="#eff6f9" stroke-linecap="butt" opacity="1" stroke-linejoin="round"/>
<path stroke="#f5eeee" stroke-opacity="0" stroke-width="1" d="M1075.6+949.937L1370.57+1130.31L1801.1+1393.59L1801.1+2133L1075.6+1689.35L1075.6+949.937Z" fill="#cbd4d8" stroke-linecap="butt" opacity="1" stroke-linejoin="round"/>
<path stroke="#f5eeee" vectornator:shadowColor="#000000" vectornator:shadowOffset="10" stroke-width="0.1" fill="#e1e8eb" stroke-linecap="butt" vectornator:shadowAngle="1.5708" stroke-linejoin="round" opacity="1" vectornator:shadowRadius="10" d="M1075.6+506.288L1801.1+62.6392L2526.59+506.288L1801.1+949.937L1075.6+506.288Z" stroke-opacity="0" vectornator:shadowOpacity="0"/>
<path stroke="#f5eeee" stroke-opacity="0" stroke-width="1" d="M1801.1+949.937L2526.59+506.288L2526.59+1689.35L1801.1+2133L1801.1+949.937Z" fill="#afb4b7" stroke-linecap="butt" opacity="1" stroke-linejoin="round"/>
<path stroke="#e1e8eb" vectornator:shadowColor="#797d7f" vectornator:shadowOffset="0" stroke-width="1" fill="#cbd4d8" stroke-linecap="butt" vectornator:shadowAngle="0.415828" stroke-linejoin="round" opacity="1" vectornator:shadowRadius="7.15859" d="M1075.6+506.288L1075.6+1689.35" vectornator:shadowOpacity="1"/>
<path stroke="#e1e8eb" vectornator:shadowColor="#797d7f" vectornator:shadowOffset="0" stroke-width="1" fill="#cbd4d8" stroke-linecap="butt" vectornator:shadowAngle="0.415828" stroke-linejoin="round" opacity="1" vectornator:shadowRadius="6.8282" d="M1801.1+62.6392L1075.6+506.288" vectornator:shadowOpacity="1"/>
</g>
<g opacity="1">
<path d="M1529.02+297.319L1552.22+313.562L1544.99+413.705L1636.62+372.657L1659.91+388.97L1543.01+437.806L1501.56+497.003L1481.66+483.069L1523.11+423.873L1529.02+297.319Z" opacity="1" fill="#afb4b7"/>
<path d="M1693.02+467.888C1700.62+473.209+1706.74+480.151+1711.38+488.712C1716.01+497.272+1718.21+505.693+1717.98+513.973C1717.8+521.894+1715.79+529.874+1711.95+537.914C1709.56+543.593+1704.58+551.833+1697.02+562.632L1618.53+507.669C1611.25+518.769+1607.71+529.282+1607.92+539.209C1608.12+549.136+1613.25+557.624+1623.32+564.672C1632.72+571.254+1642.39+573.405+1652.33+571.126C1658.05+569.767+1663.23+567.188+1667.88+563.388L1685.58+575.781C1682.36+579.388+1677.74+582.685+1671.72+585.675C1665.71+588.664+1659.99+590.548+1654.58+591.328C1645.38+592.833+1636.09+591.695+1626.72+587.914C1621.64+585.946+1616.36+583.049+1610.9+579.221C1597.56+569.885+1589.66+557.124+1587.19+540.936C1584.71+524.749+1589.59+507.922+1601.82+490.456C1613.86+473.257+1628.31+462.559+1645.15+458.361C1662+454.163+1677.96+457.339+1693.02+467.888ZM1688.54+535.38C1693.26+527.067+1695.93+519.644+1696.53+513.11C1697.66+500.99+1692.46+490.892+1680.93+482.817C1672.67+477.029+1663.64+475.158+1653.87+477.203C1644.09+479.248+1635.81+484.754+1629.04+493.72L1688.54+535.38Z" opacity="1" fill="#afb4b7"/>
<path d="M1719.88+599.797C1716.21+606.17+1714.49+611.82+1714.71+616.747C1715.19+625.721+1721.02+634.129+1732.22+641.97C1738.89+646.638+1745.77+649.296+1752.87+649.944C1759.96+650.591+1765.64+647.882+1769.88+641.816C1773.1+637.216+1773.52+632.292+1771.14+627.045C1769.56+623.758+1765.62+618.464+1759.31+611.163L1747.53+597.551C1739.98+588.889+1735.02+581.642+1732.65+575.808C1728.33+565.527+1729.17+556.087+1735.2+547.487C1742.29+537.354+1751.68+531.71+1763.37+530.555C1775.06+529.4+1787.07+533.14+1799.4+541.776C1815.53+553.072+1823.85+565.95+1824.35+580.411C1824.62+589.538+1822.26+597.521+1817.27+604.361L1800.27+592.458C1802.79+588.158+1803.94+583.455+1803.74+578.348C1802.92+570.721+1797.42+563.336+1787.22+556.195C1780.42+551.434+1774.36+549.128+1769.04+549.277C1763.72+549.426+1759.56+551.634+1756.58+555.9C1753.31+560.567+1752.99+565.91+1755.63+571.931C1757.13+575.465+1760.04+579.685+1764.35+584.593L1774.22+595.824C1784.96+608.013+1791.5+617.114+1793.85+623.128C1797.63+632.629+1796.06+642.313+1789.15+652.179C1782.48+661.711+1773.1+667.412+1761.01+669.28C1748.92+671.149+1735.48+666.902+1720.68+656.539C1704.75+645.383+1696+633.867+1694.43+621.989C1692.86+610.112+1695.58+598.677+1702.58+587.684L1719.88+599.797Z" opacity="1" fill="#afb4b7"/>
<path d="M1822.27+671.494C1818.6+677.867+1816.88+683.517+1817.11+688.444C1817.58+697.418+1823.42+705.826+1834.62+713.667C1841.28+718.335+1848.16+720.993+1855.26+721.641C1862.36+722.288+1868.03+719.579+1872.28+713.513C1875.5+708.913+1875.92+703.99+1873.53+698.742C1871.96+695.455+1868.01+690.161+1861.7+682.86L1849.92+669.248C1842.38+660.586+1837.42+653.339+1835.05+647.505C1830.72+637.224+1831.57+627.784+1837.59+619.184C1844.68+609.051+1854.08+603.408+1865.76+602.252C1877.45+601.097+1889.46+604.838+1901.79+613.473C1917.93+624.769+1926.24+637.647+1926.75+652.108C1927.01+661.235+1924.65+669.218+1919.66+676.058L1902.67+664.155C1905.18+659.855+1906.34+655.152+1906.14+650.045C1905.32+642.418+1899.81+635.033+1889.61+627.892C1882.81+623.131+1876.75+620.825+1871.43+620.974C1866.11+621.123+1861.96+623.331+1858.97+627.598C1855.7+632.264+1855.39+637.607+1858.03+643.628C1859.53+647.162+1862.43+651.382+1866.75+656.29L1876.61+667.522C1887.35+679.71+1893.9+688.811+1896.24+694.825C1900.02+704.326+1898.46+714.01+1891.55+723.876C1884.87+733.409+1875.49+739.109+1863.4+740.978C1851.32+742.846+1837.87+738.599+1823.07+728.236C1807.14+717.08+1798.39+705.564+1796.82+693.686C1795.25+681.809+1797.97+670.374+1804.97+659.381L1822.27+671.494Z" opacity="1" fill="#afb4b7"/>
</g>
</g>
<g opacity="1">
<path d="M431.628+1292.68L431.628+1314.05L371.204+1314.05L371.204+1472L346.545+1472L346.545+1314.05L286.121+1314.05L286.121+1292.68L431.628+1292.68Z" opacity="1" fill="#afb4b7"/>
<path d="M352.649+1625.84C361.926+1625.84+370.919+1628.01+379.626+1632.37C388.334+1636.72+394.967+1642.36+399.524+1649.28C403.918+1655.87+406.848+1663.56+408.313+1672.35C409.615+1678.37+410.266+1687.97+410.266+1701.16L314.441+1701.16C314.848+1714.42+317.981+1725.06+323.84+1733.08C329.7+1741.09+338.774+1745.1+351.062+1745.1C362.537+1745.1+371.692+1741.32+378.528+1733.75C382.434+1729.35+385.201+1724.27+386.829+1718.49L408.435+1718.49C407.865+1723.29+405.973+1728.64+402.759+1734.54C399.544+1740.44+395.943+1745.26+391.955+1749.01C385.282+1755.52+377.022+1759.91+367.175+1762.19C361.885+1763.49+355.904+1764.14+349.231+1764.14C332.955+1764.14+319.161+1758.22+307.849+1746.38C296.537+1734.54+290.881+1717.96+290.881+1696.64C290.881+1675.64+296.578+1658.59+307.971+1645.49C319.364+1632.39+334.257+1625.84+352.649+1625.84ZM387.683+1683.7C386.788+1674.18+384.713+1666.57+381.457+1660.87C375.435+1650.29+365.385+1645+351.306+1645C341.215+1645+332.751+1648.64+325.915+1655.93C319.08+1663.21+315.458+1672.47+315.051+1683.7L387.683+1683.7Z" opacity="1" fill="#afb4b7"/>
<path d="M285.754+1916.27L314.197+1916.27L344.226+1962.29L374.621+1916.27L401.355+1916.88L357.288+1979.99L403.308+2047L375.232+2047L342.761+1997.93L311.267+2047L283.435+2047L329.455+1979.99L285.754+1916.27Z" opacity="1" fill="#afb4b7"/>
<path d="M302.6+2167.27L324.817+2167.27L324.817+2203.77L345.691+2203.77L345.691+2221.71L324.817+2221.71L324.817+2307.04C324.817+2311.6+326.363+2314.65+329.455+2316.19C331.164+2317.09+334.013+2317.54+338+2317.54C339.058+2317.54+340.198+2317.52+341.418+2317.48C342.639+2317.44+344.063+2317.33+345.691+2317.17L345.691+2334.5C343.168+2335.24+340.544+2335.77+337.817+2336.09C335.091+2336.42+332.141+2336.58+328.967+2336.58C318.713+2336.58+311.755+2333.96+308.093+2328.71C304.431+2323.46+302.6+2316.64+302.6+2308.26L302.6+2221.71L284.9+2221.71L284.9+2203.77L302.6+2203.77L302.6+2167.27Z" opacity="1" fill="#afb4b7"/>
</g>
<g opacity="1">
<path d="M1203.61+737.989L1222.88+753.18L1177+811.367L1250.24+869.108L1296.11+810.92L1315.38+826.111L1204.36+966.931L1185.09+951.74L1237.01+885.883L1163.78+828.143L1111.85+893.999L1092.59+878.809L1203.61+737.989Z" opacity="1" fill="#afb4b7"/>
<path d="M1310.89+885.212L1328.43+899.042L1247.86+1001.23L1230.32+987.4L1310.89+885.212ZM1341.34+846.58L1358.89+860.41L1343.47+879.966L1325.93+866.135L1341.34+846.58Z" opacity="1" fill="#afb4b7"/>
<path d="M1353.24+918.604L1370.78+932.434L1290.22+1034.62L1272.68+1020.79L1353.24+918.604ZM1383.7+879.972L1401.24+893.802L1385.82+913.358L1368.28+899.528L1383.7+879.972Z" opacity="1" fill="#afb4b7"/>
<path d="M1395.6+951.996L1413.14+965.827L1332.57+1068.01L1315.03+1054.18L1395.6+951.996ZM1426.05+913.364L1443.6+927.195L1428.18+946.75L1410.64+932.92L1426.05+913.364Z" opacity="1" fill="#afb4b7"/>
<path d="M1437.95+985.388L1455.49+999.219L1374.93+1101.41L1357.39+1087.58L1437.95+985.388ZM1468.41+946.756L1485.95+960.587L1470.53+980.143L1452.99+966.312L1468.41+946.756Z" opacity="1" fill="#afb4b7"/>
<path d="M1480.31+1018.78L1497.85+1032.61L1417.28+1134.8L1399.74+1120.97L1480.31+1018.78ZM1510.76+980.149L1528.31+993.979L1512.89+1013.53L1495.34+999.704L1510.76+980.149Z" opacity="1" fill="#afb4b7"/>
<path d="M1522.66+1052.17L1540.2+1066L1459.64+1168.19L1442.1+1154.36L1522.66+1052.17ZM1553.12+1013.54L1570.66+1027.37L1555.24+1046.93L1537.7+1033.1L1553.12+1013.54Z" opacity="1" fill="#afb4b7"/>
<path d="M1565.01+1085.57L1582.56+1099.4L1501.99+1201.58L1484.45+1187.75L1565.01+1085.57ZM1595.47+1046.93L1613.01+1060.76L1597.6+1080.32L1580.05+1066.49L1595.47+1046.93Z" opacity="1" fill="#afb4b7"/>
</g>
</g>
</svg>
