
<svg height="100%" style="fill-rule:evenodd;clip-rule:evenodd;stroke-linecap:round;stroke-linejoin:round;" xmlns:xlink="http://www.w3.org/1999/xlink" xmlns="http://www.w3.org/2000/svg" xml:space="preserve" width="100%" xmlns:vectornator="http://vectornator.io" version="1.1" viewBox="0 0 764.192 1024">
<metadata>
<vectornator:setting key="DimensionsVisible" value="1"/>
<vectornator:setting key="SnapToGrid" value="1"/>
<vectornator:setting key="SnapToPoints" value="0"/>
<vectornator:setting key="GuidesVisible" value="1"/>
<vectornator:setting key="RulersVisible" value="1"/>
<vectornator:setting key="SnapToEdges" value="0"/>
<vectornator:setting key="DisplayWhiteBackground" value="1"/>
<vectornator:setting key="SnapToGuides" value="1"/>
<vectornator:setting key="GridSpacing" value="50"/>
<vectornator:setting key="Units" value="Pixels"/>
<vectornator:setting key="DynamicGuides" value="1"/>
<vectornator:setting key="New" value="1"/>
</metadata>
<defs/>
<g id="Layer 1" vectornator:layerName="Layer 1">
<g opacity="1">
<path stroke="#f5eeee" vectornator:shadowColor="#322b2b" vectornator:shadowOffset="5.81494" stroke-width="0.1" fill="#dfe3e9" stroke-linecap="butt" vectornator:shadowAngle="0.46248" stroke-linejoin="round" opacity="1" vectornator:shadowRadius="19.614" d="M21.6506+787.5L346.41+600L736.122+825L411.362+1012.5L21.6506+787.5Z" stroke-opacity="0" vectornator:shadowOpacity="0.548547"/>
<path stroke="#e1e8eb" vectornator:shadowColor="#797d7f" vectornator:shadowOffset="0" stroke-width="1" fill="#cbd4d8" stroke-linecap="butt" vectornator:shadowAngle="0.415828" stroke-linejoin="round" opacity="1" vectornator:shadowRadius="6.8282" d="M346.41+25L21.6506+212.5" vectornator:shadowOpacity="1"/>
<path stroke="#adb1b2" stroke-opacity="0" stroke-width="1" d="M21.6506+212.5L411.362+437.5L411.362+712.5L21.6506+487.5L21.6506+212.5Z" fill="#eadd8d" stroke-linecap="butt" fill-opacity="0" opacity="1" stroke-linejoin="round"/>
<path stroke="#f5eeee" stroke-opacity="0" stroke-width="1" d="M736.122+250L346.41+25L346.41+600L736.122+825L736.122+250Z" fill="#cbd4d8" stroke-linecap="butt" opacity="1" stroke-linejoin="round"/>
<path stroke="#f5eeee" vectornator:shadowColor="#000000" vectornator:shadowOffset="0" stroke-width="1" fill="#afb4b7" stroke-linecap="butt" vectornator:shadowAngle="1.5708" stroke-linejoin="round" opacity="1" stroke-dasharray="0,6" vectornator:shadowRadius="0.330396" d="M411.362+437.5L736.122+250L736.122+825L411.362+1012.5L411.362+437.5Z" stroke-opacity="0" vectornator:shadowOpacity="0"/>
<path stroke="#f5eeee" vectornator:shadowColor="#000000" vectornator:shadowOffset="0" stroke-width="1" fill="#b7b6af" stroke-linecap="butt" vectornator:shadowAngle="1.5708" stroke-linejoin="round" opacity="1" stroke-dasharray="0,6" vectornator:shadowRadius="0.330396" d="M21.6506+212.5L346.41+25L346.41+600L21.6506+787.5L21.6506+212.5Z" stroke-opacity="0" vectornator:shadowOpacity="0"/>
<path stroke="#f5eeee" stroke-opacity="0" stroke-width="1" d="M21.6506+487.5L341.282+672.039L411.362+712.5L411.362+1012.5L21.6506+787.5L21.6506+487.5Z" fill="#cbd4d8" stroke-linecap="butt" opacity="1" stroke-linejoin="round"/>
<path stroke="#f5eeee" vectornator:shadowColor="#322b2b" vectornator:shadowOffset="5.81494" stroke-width="0.1" fill="#7ca9ef" stroke-linecap="butt" vectornator:shadowAngle="0.46248" stroke-linejoin="round" opacity="1" vectornator:shadowRadius="19.614" d="M21.6506+212.5L346.41+25L736.122+250L411.362+437.5L21.6506+212.5Z" stroke-opacity="0" vectornator:shadowOpacity="0.548547"/>
</g>
<g opacity="1">
<path d="M292.392+161.828L304.169+161.828L304.169+197.395L348.935+197.395L348.935+161.828L360.712+161.828L360.712+247.902L348.935+247.902L348.935+207.648L304.169+207.648L304.169+247.902L292.392+247.902L292.392+161.828Z" opacity="1" fill="#4f688e"/>
<path d="M377.353+185.441L388.075+185.441L388.075+247.902L377.353+247.902L377.353+185.441ZM377.353+161.828L388.075+161.828L388.075+173.781L377.353+173.781L377.353+161.828Z" opacity="1" fill="#4f688e"/>
<path d="M404.013+185.441L414.736+185.441L414.736+247.902L404.013+247.902L404.013+185.441ZM404.013+161.828L414.736+161.828L414.736+173.781L404.013+173.781L404.013+161.828Z" opacity="1" fill="#4f688e"/>
</g>
</g>
</svg>
