<?xml version="1.0" encoding="UTF-8" standalone="no"?> <!-- Created with Vectornator for iOS (http://vectornator.io/) --><!DOCTYPE svg PUBLIC "-//W3C//DTD SVG 1.1//EN" "http://www.w3.org/Graphics/SVG/1.1/DTD/svg11.dtd">
<svg height="100%" style="fill-rule:evenodd;clip-rule:evenodd;stroke-linecap:round;stroke-linejoin:round;" xmlns:xlink="http://www.w3.org/1999/xlink" xmlns="http://www.w3.org/2000/svg" xml:space="preserve" width="100%" xmlns:vectornator="http://vectornator.io" version="1.1" viewBox="0 0 1024 1024">
<metadata>
<vectornator:setting key="DimensionsVisible" value="1"/>
<vectornator:setting key="SnapToGrid" value="1"/>
<vectornator:setting key="SnapToPoints" value="0"/>
<vectornator:setting key="GuidesVisible" value="1"/>
<vectornator:setting key="RulersVisible" value="1"/>
<vectornator:setting key="SnapToEdges" value="0"/>
<vectornator:setting key="DisplayWhiteBackground" value="1"/>
<vectornator:setting key="SnapToGuides" value="1"/>
<vectornator:setting key="GridSpacing" value="36"/>
<vectornator:setting key="Units" value="Pixels"/>
<vectornator:setting key="DynamicGuides" value="1"/>
<vectornator:setting key="New" value="1"/>
</metadata>
<defs/>
<g id="Layer 1" vectornator:layerName="Layer 1">
<g opacity="1">
<g opacity="1">
<path stroke="#f5eeee" stroke-opacity="0" stroke-width="1" d="M191.38+274.745L321.723+354.451L321.723+434.157L257.761+395.043L191.38+354.451L191.38+274.745Z" fill="#ffffff" stroke-linecap="butt" opacity="1" stroke-linejoin="round"/>
<path stroke="#f5eeee" stroke-opacity="0" stroke-width="1" d="M191.38+274.745L321.723+195.039L452.065+274.745L321.723+354.451L191.38+274.745Z" fill="#ffffff" stroke-linecap="butt" opacity="1" stroke-linejoin="round"/>
<path stroke="#adb1b2" stroke-opacity="0" stroke-width="1" d="M191.38+274.745L321.723+354.451L321.723+434.157L191.38+354.451L191.38+274.745Z" fill="#eff6f9" stroke-linecap="butt" opacity="1" stroke-linejoin="round"/>
<path stroke="#f5eeee" stroke-opacity="0" stroke-width="1" d="M191.38+354.451L244.374+386.857L321.723+434.157L321.723+567L191.38+487.294L191.38+354.451Z" fill="#cbd4d8" stroke-linecap="butt" opacity="1" stroke-linejoin="round"/>
<path stroke="#f5eeee" vectornator:shadowColor="#000000" vectornator:shadowOffset="10" stroke-width="0.1" fill="#e1e8eb" stroke-linecap="butt" vectornator:shadowAngle="1.5708" stroke-linejoin="round" opacity="1" vectornator:shadowRadius="10" d="M191.38+274.745L321.723+195.039L452.065+274.745L321.723+354.451L191.38+274.745Z" stroke-opacity="0" vectornator:shadowOpacity="0"/>
<path stroke="#f5eeee" stroke-opacity="0" stroke-width="1" d="M321.723+354.451L452.065+274.745L452.065+487.294L321.723+567L321.723+354.451Z" fill="#afb4b7" stroke-linecap="butt" opacity="1" stroke-linejoin="round"/>
<path stroke="#e1e8eb" vectornator:shadowColor="#797d7f" vectornator:shadowOffset="0" stroke-width="1" fill="#cbd4d8" stroke-linecap="butt" vectornator:shadowAngle="0.415828" stroke-linejoin="round" opacity="1" vectornator:shadowRadius="7.15859" d="M191.38+274.745L191.38+487.294" vectornator:shadowOpacity="1"/>
<path stroke="#e1e8eb" vectornator:shadowColor="#797d7f" vectornator:shadowOffset="0" stroke-width="1" fill="#cbd4d8" stroke-linecap="butt" vectornator:shadowAngle="0.415828" stroke-linejoin="round" opacity="1" vectornator:shadowRadius="6.8282" d="M321.723+195.039L191.38+274.745" vectornator:shadowOpacity="1"/>
</g>
<g opacity="1">
<path stroke="#f5eeee" stroke-opacity="0" stroke-width="1" d="M191.38+274.745L321.723+354.451L321.723+434.157L257.761+395.043L191.38+354.451L191.38+274.745Z" fill="#ffffff" stroke-linecap="butt" opacity="1" stroke-linejoin="round"/>
<path stroke="#f5eeee" stroke-opacity="0" stroke-width="1" d="M191.38+274.745L321.723+195.039L452.065+274.745L321.723+354.451L191.38+274.745Z" fill="#ffffff" stroke-linecap="butt" opacity="1" stroke-linejoin="round"/>
<path stroke="#adb1b2" stroke-opacity="0" stroke-width="1" d="M191.38+274.745L321.723+354.451L321.723+434.157L191.38+354.451L191.38+274.745Z" fill="#eff6f9" stroke-linecap="butt" opacity="1" stroke-linejoin="round"/>
<path stroke="#f5eeee" stroke-opacity="0" stroke-width="1" d="M191.38+354.451L244.374+386.857L321.723+434.157L321.723+567L191.38+487.294L191.38+354.451Z" fill="#cbd4d8" stroke-linecap="butt" opacity="1" stroke-linejoin="round"/>
<path stroke="#f5eeee" vectornator:shadowColor="#000000" vectornator:shadowOffset="10" stroke-width="0.1" fill="#e1e8eb" stroke-linecap="butt" vectornator:shadowAngle="1.5708" stroke-linejoin="round" opacity="1" vectornator:shadowRadius="10" d="M191.38+274.745L321.723+195.039L452.065+274.745L321.723+354.451L191.38+274.745Z" stroke-opacity="0" vectornator:shadowOpacity="0"/>
<path stroke="#f5eeee" stroke-opacity="0" stroke-width="1" d="M321.723+354.451L452.065+274.745L452.065+487.294L321.723+567L321.723+354.451Z" fill="#afb4b7" stroke-linecap="butt" opacity="1" stroke-linejoin="round"/>
<path stroke="#e1e8eb" vectornator:shadowColor="#797d7f" vectornator:shadowOffset="0" stroke-width="1" fill="#cbd4d8" stroke-linecap="butt" vectornator:shadowAngle="0.415828" stroke-linejoin="round" opacity="1" vectornator:shadowRadius="7.15859" d="M191.38+274.745L191.38+487.294" vectornator:shadowOpacity="1"/>
<path stroke="#e1e8eb" vectornator:shadowColor="#797d7f" vectornator:shadowOffset="0" stroke-width="1" fill="#cbd4d8" stroke-linecap="butt" vectornator:shadowAngle="0.415828" stroke-linejoin="round" opacity="1" vectornator:shadowRadius="6.8282" d="M321.723+195.039L191.38+274.745" vectornator:shadowOpacity="1"/>
</g>
<path stroke="#f5eeee" stroke-opacity="0" stroke-width="1" d="M15.5885+224.982L368.782+440.963L368.782+656.945L195.463+550.959L15.5885+440.963L15.5885+224.982Z" fill="#ffffff" stroke-linecap="butt" opacity="1" stroke-linejoin="round"/>
<path stroke="#f5eeee" stroke-opacity="0" stroke-width="1" d="M15.5885+224.982L368.782+9L721.975+224.982L368.782+440.963L15.5885+224.982Z" fill="#ffffff" stroke-linecap="butt" opacity="1" stroke-linejoin="round"/>
<path stroke="#adb1b2" stroke-opacity="0" stroke-width="1" d="M15.5885+224.982L368.782+440.963L368.782+656.945L15.5885+440.963L15.5885+224.982Z" fill="#eff6f9" stroke-linecap="butt" opacity="1" stroke-linejoin="round"/>
<path stroke="#f5eeee" stroke-opacity="0" stroke-width="1" d="M15.5885+440.963L159.189+528.777L368.782+656.945L368.782+1016.91L15.5885+800.933L15.5885+440.963Z" fill="#cbd4d8" stroke-linecap="butt" opacity="1" stroke-linejoin="round"/>
<path stroke="#f5eeee" vectornator:shadowColor="#000000" vectornator:shadowOffset="10" stroke-width="0.1" fill="#d84862" stroke-linecap="butt" vectornator:shadowAngle="1.5708" stroke-linejoin="round" opacity="1" vectornator:shadowRadius="10" d="M15.5885+224.982L368.782+9L721.975+224.982L368.782+440.963L15.5885+224.982Z" stroke-opacity="0" vectornator:shadowOpacity="0"/>
<path stroke="#f5eeee" stroke-opacity="0" stroke-width="1" d="M368.782+440.963L721.975+224.982L721.975+800.933L368.782+1016.91L368.782+440.963Z" fill="#afb4b7" stroke-linecap="butt" opacity="1" stroke-linejoin="round"/>
<path stroke="#e1e8eb" vectornator:shadowColor="#797d7f" vectornator:shadowOffset="0" stroke-width="1" fill="#cbd4d8" stroke-linecap="butt" vectornator:shadowAngle="0.415828" stroke-linejoin="round" opacity="1" vectornator:shadowRadius="7.15859" d="M15.5885+224.982L15.5885+800.933" vectornator:shadowOpacity="1"/>
<path stroke="#e1e8eb" vectornator:shadowColor="#797d7f" vectornator:shadowOffset="0" stroke-width="1" fill="#cbd4d8" stroke-linecap="butt" vectornator:shadowAngle="0.415828" stroke-linejoin="round" opacity="1" vectornator:shadowRadius="6.8282" d="M368.782+9L15.5885+224.982" vectornator:shadowOpacity="1"/>
</g>
</g>
</svg>
