<?xml version="1.0" encoding="UTF-8" standalone="no"?> <!-- Created with Vectornator for iOS (http://vectornator.io/) --><!DOCTYPE svg PUBLIC "-//W3C//DTD SVG 1.1//EN" "http://www.w3.org/Graphics/SVG/1.1/DTD/svg11.dtd">
<svg height="100%" style="fill-rule:evenodd;clip-rule:evenodd;stroke-linecap:round;stroke-linejoin:round;" xmlns:xlink="http://www.w3.org/1999/xlink" xmlns="http://www.w3.org/2000/svg" xml:space="preserve" width="100%" xmlns:vectornator="http://vectornator.io" version="1.1" viewBox="0 0 764.192 1024">
<metadata>
<setting key="DynamicGuides" value="1"/>
<setting key="Units" value="Points"/>
<setting key="GuidesVisible" value="1"/>
<setting key="RulersVisible" value="1"/>
<setting key="SnapToGuides" value="1"/>
<setting key="GridSpacing" value="36"/>
</metadata>
<defs/>
<g id="Layer 1" layerName="Layer 1">
<g opacity="1">
<path stroke="#f5eeee" fill-rule="evenodd" stroke-opacity="0" stroke-width="0.1" d="M21.6506+787.5L346.41+600L736.122+825L411.362+1012.5L21.6506+787.5Z" fill="#eaeaea" stroke-linecap="butt" opacity="1" stroke-linejoin="miter"/>
<path stroke="#f5eeee" fill-rule="evenodd" stroke-opacity="0" stroke-width="1" d="M21.6506+212.5L346.41+25L346.41+600L21.6506+787.5L21.6506+212.5Z" fill="#afb4b7" stroke-linecap="butt" opacity="1" stroke-linejoin="miter" stroke-dasharray="0,6"/>
<path stroke="#e1e8eb" fill-rule="evenodd" stroke-width="1" d="M346.41+25L21.6506+212.5" fill="#cbd4d8" stroke-linecap="butt" opacity="1" stroke-linejoin="miter"/>
<path stroke="#adb1b2" fill-rule="evenodd" stroke-opacity="0" stroke-width="1" d="M822.724+250L433.013+475L433.013+750L822.724+525L822.724+250Z" fill="#eadd8d" stroke-linecap="butt" fill-opacity="0" opacity="1" stroke-linejoin="miter"/>
<path stroke="#f5eeee" fill-rule="evenodd" stroke-opacity="0" stroke-width="1" d="M411.362+437.5L21.6506+212.5L21.6506+787.5L411.362+1012.5L411.362+437.5Z" fill="#d3dce0" stroke-linecap="butt" opacity="1" stroke-linejoin="miter"/>
<path stroke="#f5eeee" fill-rule="evenodd" stroke-opacity="0" stroke-width="1" d="M346.41+300L666.041+484.539L736.122+525L736.122+825L346.41+600L346.41+300Z" fill="#cbd4d8" stroke-linecap="butt" opacity="1" stroke-linejoin="miter"/>
<path stroke="#f5eeee" fill-rule="evenodd" stroke-opacity="0" stroke-width="1" d="M411.362+437.5L736.122+250L736.122+825L411.362+1012.5L411.362+437.5Z" fill="#c8d0d4" stroke-linecap="butt" opacity="1" stroke-linejoin="miter" stroke-dasharray="0,6"/>
<path stroke="#f5eeee" fill-rule="evenodd" stroke-opacity="0" stroke-width="0.1" d="M21.6506+212.5L411.362+437.5L411.362+662.5L21.6506+437.5L21.6506+212.5Z" fill="#afb6ba" stroke-linecap="butt" opacity="1" stroke-linejoin="miter"/>
<path stroke="#6c7076" fill-rule="evenodd" stroke-width="4" d="M368.061+394.25L368.061+414.844L368.061+648.892L368.061+637.5L368.061+394.25Z" fill="#95979c" stroke-linecap="butt" opacity="1" stroke-linejoin="miter"/>
<path stroke="#6c7076" fill-rule="evenodd" stroke-width="2.95" d="M303.109+377.344L303.109+377.344L303.109+600L303.109+600L303.109+377.344Z" fill="#6c7076" stroke-linecap="butt" opacity="1" stroke-linejoin="miter"/>
<path stroke="#6c7076" fill-rule="evenodd" stroke-width="4" d="M303.109+339.844L303.109+377.344C303.109+377.344+303.109+587.5+303.109+600C303.109+612.5+303.109+600+303.109+600L303.109+339.844Z" fill="#95979c" stroke-linecap="butt" opacity="1" stroke-linejoin="miter"/>
<path stroke="#6c7076" fill-rule="evenodd" stroke-width="4" d="M238.157+313.112L238.157+339.844C238.157+339.844+238.157+551.192+238.157+562.5C238.157+573.808+238.157+562.5+238.157+562.5L238.157+313.112Z" fill="#95979c" stroke-linecap="butt" opacity="1" stroke-linejoin="miter"/>
<path stroke="#6c7076" fill-rule="evenodd" stroke-width="4" d="M173.205+274.659L173.205+300C173.205+300+173.205+512.599+173.205+522.656C173.205+532.713+173.205+522.656+173.205+522.656L173.205+274.659Z" fill="#95979c" stroke-linecap="butt" opacity="1" stroke-linejoin="miter"/>
<path stroke="#6c7076" fill-rule="evenodd" stroke-width="4" d="M108.253+264.844C108.253+227.344+108.253+264.844+108.253+264.844C108.253+264.844+108.253+475+108.253+487.5C108.253+500+108.253+487.5+108.253+487.5C108.253+487.5+108.253+302.344+108.253+264.844Z" fill="#95979c" stroke-linecap="butt" opacity="1" stroke-linejoin="miter"/>
<path stroke="#6c7076" fill-rule="evenodd" stroke-width="4" d="M43.3013+212.5L43.3013+227.344L43.3013+459.956L43.3013+450L43.3013+212.5Z" fill="#95979c" stroke-linecap="butt" opacity="1" stroke-linejoin="miter"/>
<g opacity="1">
<path stroke="#ffffff" fill-rule="evenodd" stroke-width="1" d="M21.6506+712.5L43.3013+725L43.3013+750L21.6506+737.5L21.6506+712.5Z" fill="#e4d564" stroke-linecap="butt" opacity="1" stroke-linejoin="miter"/>
<path stroke="#ffffff" fill-rule="evenodd" stroke-width="1" d="M64.9519+737.5L86.6025+750L86.6025+775L64.9519+762.5L64.9519+737.5Z" fill="#e4d564" stroke-linecap="butt" opacity="1" stroke-linejoin="miter"/>
<path stroke="#ffffff" fill-rule="evenodd" stroke-width="1" d="M43.3013+725L64.9519+737.5L64.9519+762.5L43.3013+750L43.3013+725Z" fill="#e4c364" stroke-linecap="butt" opacity="1" stroke-linejoin="miter"/>
<path stroke="#ffffff" fill-rule="evenodd" stroke-width="1" d="M86.6025+750L108.253+762.5L108.253+787.5L86.6025+775L86.6025+750Z" fill="#e4c364" stroke-linecap="butt" opacity="1" stroke-linejoin="miter"/>
<path stroke="#ffffff" fill-rule="evenodd" stroke-width="1" d="M108.253+762.5L129.904+775L129.904+800L108.253+787.5L108.253+762.5Z" fill="#e4d564" stroke-linecap="butt" opacity="1" stroke-linejoin="miter"/>
<path stroke="#ffffff" fill-rule="evenodd" stroke-width="1" d="M151.554+787.5L173.205+800L173.205+825L151.554+812.5L151.554+787.5Z" fill="#e4d564" stroke-linecap="butt" opacity="1" stroke-linejoin="miter"/>
<path stroke="#ffffff" fill-rule="evenodd" stroke-width="1" d="M129.904+775L151.554+787.5L151.554+812.5L129.904+800L129.904+775Z" fill="#e4c364" stroke-linecap="butt" opacity="1" stroke-linejoin="miter"/>
<path stroke="#ffffff" fill-rule="evenodd" stroke-width="1" d="M173.205+800L194.856+812.5L194.856+837.5L173.205+825L173.205+800Z" fill="#e4c364" stroke-linecap="butt" opacity="1" stroke-linejoin="miter"/>
<path stroke="#ffffff" fill-rule="evenodd" stroke-width="1" d="M194.856+812.5L216.506+825L216.506+850L194.856+837.5L194.856+812.5Z" fill="#e4d564" stroke-linecap="butt" opacity="1" stroke-linejoin="miter"/>
<path stroke="#ffffff" fill-rule="evenodd" stroke-width="1" d="M238.157+837.5L259.808+850L259.808+875L238.157+862.5L238.157+837.5Z" fill="#e4d564" stroke-linecap="butt" opacity="1" stroke-linejoin="miter"/>
<path stroke="#ffffff" fill-rule="evenodd" stroke-width="1" d="M216.506+825L238.157+837.5L238.157+862.5L216.506+850L216.506+825Z" fill="#e4c364" stroke-linecap="butt" opacity="1" stroke-linejoin="miter"/>
<path stroke="#ffffff" fill-rule="evenodd" stroke-width="1" d="M259.808+850L281.458+862.5L281.458+887.5L259.808+875L259.808+850Z" fill="#e4c364" stroke-linecap="butt" opacity="1" stroke-linejoin="miter"/>
<path stroke="#ffffff" fill-rule="evenodd" stroke-width="1" d="M281.458+862.5L303.109+875L303.109+900L281.458+887.5L281.458+862.5Z" fill="#e4d564" stroke-linecap="butt" opacity="1" stroke-linejoin="miter"/>
<path stroke="#ffffff" fill-rule="evenodd" stroke-width="1" d="M368.061+912.5L389.711+925L389.711+950L368.061+937.5L368.061+912.5Z" fill="#e4d564" stroke-linecap="butt" opacity="1" stroke-linejoin="miter"/>
<path stroke="#ffffff" fill-rule="evenodd" stroke-width="1" d="M303.109+875L324.76+887.5L324.76+912.5L303.109+900L303.109+875Z" fill="#e4c364" stroke-linecap="butt" opacity="1" stroke-linejoin="miter"/>
<path stroke="#ffffff" fill-rule="evenodd" stroke-width="1" d="M324.76+887.5L346.41+900L346.41+925L324.76+912.5L324.76+887.5Z" fill="#e4d564" stroke-linecap="butt" opacity="1" stroke-linejoin="miter"/>
<path stroke="#ffffff" fill-rule="evenodd" stroke-width="1" d="M346.41+900L368.061+912.5L368.061+937.5L346.41+925L346.41+900Z" fill="#e4c364" stroke-linecap="butt" opacity="1" stroke-linejoin="miter"/>
<path stroke="#ffffff" fill-rule="evenodd" stroke-width="1" d="M389.711+925L411.362+937.5L411.362+962.5L389.711+950L389.711+925Z" fill="#e4c364" stroke-linecap="butt" opacity="1" stroke-linejoin="miter"/>
</g>
<path stroke="#ffffff" fill-rule="evenodd" stroke-width="1" d="M736.122+775L714.471+787.5L714.471+812.5L736.122+800L736.122+775Z" fill="#e4c364" stroke-linecap="butt" opacity="1" stroke-linejoin="miter"/>
<path stroke="#ffffff" fill-rule="evenodd" stroke-width="1" d="M714.471+787.5L692.82+800L692.82+825L714.471+812.5L714.471+787.5Z" fill="#e4d564" stroke-linecap="butt" opacity="1" stroke-linejoin="miter"/>
<path stroke="#ffffff" fill-rule="evenodd" stroke-width="1" d="M671.17+812.5L649.519+825L649.519+850L671.17+837.5L671.17+812.5Z" fill="#e4d564" stroke-linecap="butt" opacity="1" stroke-linejoin="miter"/>
<path stroke="#ffffff" fill-rule="evenodd" stroke-width="1" d="M692.82+800L671.17+812.5L671.17+837.5L692.82+825L692.82+800Z" fill="#e4c364" stroke-linecap="butt" opacity="1" stroke-linejoin="miter"/>
<path stroke="#ffffff" fill-rule="evenodd" stroke-width="1" d="M649.519+825L627.868+837.5L627.868+862.5L649.519+850L649.519+825Z" fill="#e4c364" stroke-linecap="butt" opacity="1" stroke-linejoin="miter"/>
<path stroke="#ffffff" fill-rule="evenodd" stroke-width="1" d="M627.868+837.5L606.218+850L606.218+875L627.868+862.5L627.868+837.5Z" fill="#e4d564" stroke-linecap="butt" opacity="1" stroke-linejoin="miter"/>
<path stroke="#ffffff" fill-rule="evenodd" stroke-width="1" d="M584.567+862.5L562.917+875L562.917+900L584.567+887.5L584.567+862.5Z" fill="#e4d564" stroke-linecap="butt" opacity="1" stroke-linejoin="miter"/>
<path stroke="#ffffff" fill-rule="evenodd" stroke-width="1" d="M606.218+850L584.567+862.5L584.567+887.5L606.218+875L606.218+850Z" fill="#e4c364" stroke-linecap="butt" opacity="1" stroke-linejoin="miter"/>
<path stroke="#ffffff" fill-rule="evenodd" stroke-width="1" d="M562.917+875L541.266+887.5L541.266+912.5L562.917+900L562.917+875Z" fill="#e4c364" stroke-linecap="butt" opacity="1" stroke-linejoin="miter"/>
<path stroke="#ffffff" fill-rule="evenodd" stroke-width="1" d="M541.266+887.5L519.615+900L519.615+925L541.266+912.5L541.266+887.5Z" fill="#e4d564" stroke-linecap="butt" opacity="1" stroke-linejoin="miter"/>
<path stroke="#ffffff" fill-rule="evenodd" stroke-width="1" d="M454.663+937.5L433.013+950L433.013+975L454.663+962.5L454.663+937.5Z" fill="#e4d564" stroke-linecap="butt" opacity="1" stroke-linejoin="miter"/>
<path stroke="#ffffff" fill-rule="evenodd" stroke-width="1" d="M519.615+900L497.965+912.5L497.965+937.5L519.615+925L519.615+900Z" fill="#e4c364" stroke-linecap="butt" opacity="1" stroke-linejoin="miter"/>
<path stroke="#ffffff" fill-rule="evenodd" stroke-width="1" d="M497.965+912.5L476.314+925L476.314+950L497.965+937.5L497.965+912.5Z" fill="#e4d564" stroke-linecap="butt" opacity="1" stroke-linejoin="miter"/>
<path stroke="#ffffff" fill-rule="evenodd" stroke-width="1" d="M476.314+925L454.663+937.5L454.663+962.5L476.314+950L476.314+925Z" fill="#e4c364" stroke-linecap="butt" opacity="1" stroke-linejoin="miter"/>
<path stroke="#ffffff" fill-rule="evenodd" stroke-width="1" d="M433.013+950L411.362+962.5L411.362+987.5L433.013+975L433.013+950Z" fill="#e4c364" stroke-linecap="butt" opacity="1" stroke-linejoin="miter"/>
<g opacity="1">
<path stroke="#ffffff" fill-rule="evenodd" stroke-width="1" d="M21.6506+762.5L43.3013+775L43.3013+800L21.6506+787.5L21.6506+762.5Z" fill="#e4d564" stroke-linecap="butt" opacity="1" stroke-linejoin="miter"/>
<path stroke="#ffffff" fill-rule="evenodd" stroke-width="1" d="M64.9519+787.5L86.6025+800L86.6025+825L64.9519+812.5L64.9519+787.5Z" fill="#e4d564" stroke-linecap="butt" opacity="1" stroke-linejoin="miter"/>
<path stroke="#ffffff" fill-rule="evenodd" stroke-width="1" d="M43.3013+775L64.9519+787.5L64.9519+812.5L43.3013+800L43.3013+775Z" fill="#e4c364" stroke-linecap="butt" opacity="1" stroke-linejoin="miter"/>
<path stroke="#ffffff" fill-rule="evenodd" stroke-width="1" d="M86.6025+800L108.253+812.5L108.253+837.5L86.6025+825L86.6025+800Z" fill="#e4c364" stroke-linecap="butt" opacity="1" stroke-linejoin="miter"/>
<path stroke="#ffffff" fill-rule="evenodd" stroke-width="1" d="M108.253+812.5L129.904+825L129.904+850L108.253+837.5L108.253+812.5Z" fill="#e4d564" stroke-linecap="butt" opacity="1" stroke-linejoin="miter"/>
<path stroke="#ffffff" fill-rule="evenodd" stroke-width="1" d="M151.554+837.5L173.205+850L173.205+875L151.554+862.5L151.554+837.5Z" fill="#e4d564" stroke-linecap="butt" opacity="1" stroke-linejoin="miter"/>
<path stroke="#ffffff" fill-rule="evenodd" stroke-width="1" d="M129.904+825L151.554+837.5L151.554+862.5L129.904+850L129.904+825Z" fill="#e4c364" stroke-linecap="butt" opacity="1" stroke-linejoin="miter"/>
<path stroke="#ffffff" fill-rule="evenodd" stroke-width="1" d="M173.205+850L194.856+862.5L194.856+887.5L173.205+875L173.205+850Z" fill="#e4c364" stroke-linecap="butt" opacity="1" stroke-linejoin="miter"/>
<path stroke="#ffffff" fill-rule="evenodd" stroke-width="1" d="M194.856+862.5L216.506+875L216.506+900L194.856+887.5L194.856+862.5Z" fill="#e4d564" stroke-linecap="butt" opacity="1" stroke-linejoin="miter"/>
<path stroke="#ffffff" fill-rule="evenodd" stroke-width="1" d="M238.157+887.5L259.808+900L259.808+925L238.157+912.5L238.157+887.5Z" fill="#e4d564" stroke-linecap="butt" opacity="1" stroke-linejoin="miter"/>
<path stroke="#ffffff" fill-rule="evenodd" stroke-width="1" d="M216.506+875L238.157+887.5L238.157+912.5L216.506+900L216.506+875Z" fill="#e4c364" stroke-linecap="butt" opacity="1" stroke-linejoin="miter"/>
<path stroke="#ffffff" fill-rule="evenodd" stroke-width="1" d="M259.808+900L281.458+912.5L281.458+937.5L259.808+925L259.808+900Z" fill="#e4c364" stroke-linecap="butt" opacity="1" stroke-linejoin="miter"/>
<path stroke="#ffffff" fill-rule="evenodd" stroke-width="1" d="M281.458+912.5L303.109+925L303.109+950L281.458+937.5L281.458+912.5Z" fill="#e4d564" stroke-linecap="butt" opacity="1" stroke-linejoin="miter"/>
<path stroke="#ffffff" fill-rule="evenodd" stroke-width="1" d="M368.061+962.5L389.711+975L389.711+1000L368.061+987.5L368.061+962.5Z" fill="#e4d564" stroke-linecap="butt" opacity="1" stroke-linejoin="miter"/>
<path stroke="#ffffff" fill-rule="evenodd" stroke-width="1" d="M303.109+925L324.76+937.5L324.76+962.5L303.109+950L303.109+925Z" fill="#e4c364" stroke-linecap="butt" opacity="1" stroke-linejoin="miter"/>
<path stroke="#ffffff" fill-rule="evenodd" stroke-width="1" d="M324.76+937.5L346.41+950L346.41+975L324.76+962.5L324.76+937.5Z" fill="#e4d564" stroke-linecap="butt" opacity="1" stroke-linejoin="miter"/>
<path stroke="#ffffff" fill-rule="evenodd" stroke-width="1" d="M346.41+950L368.061+962.5L368.061+987.5L346.41+975L346.41+950Z" fill="#e4c364" stroke-linecap="butt" opacity="1" stroke-linejoin="miter"/>
<path stroke="#ffffff" fill-rule="evenodd" stroke-width="1" d="M389.711+975L411.362+987.5L411.362+1012.5L389.711+1000L389.711+975Z" fill="#e4c364" stroke-linecap="butt" opacity="1" stroke-linejoin="miter"/>
</g>
<g opacity="1">
<path stroke="#ffffff" fill-rule="evenodd" stroke-width="1" d="M21.6506+687.5L43.3013+700L43.3013+725L21.6506+712.5L21.6506+687.5Z" fill="#e4c364" stroke-linecap="butt" opacity="1" stroke-linejoin="miter"/>
<path stroke="#ffffff" fill-rule="evenodd" stroke-width="1" d="M64.9519+712.5L86.6025+725L86.6025+750L64.9519+737.5L64.9519+712.5Z" fill="#e4c364" stroke-linecap="butt" opacity="1" stroke-linejoin="miter"/>
<path stroke="#ffffff" fill-rule="evenodd" stroke-width="1" d="M43.3013+700L64.9519+712.5L64.9519+737.5L43.3013+725L43.3013+700Z" fill="#e4d564" stroke-linecap="butt" opacity="1" stroke-linejoin="miter"/>
<path stroke="#ffffff" fill-rule="evenodd" stroke-width="1" d="M86.6025+725L108.253+737.5L108.253+762.5L86.6025+750L86.6025+725Z" fill="#e4d564" stroke-linecap="butt" opacity="1" stroke-linejoin="miter"/>
<path stroke="#ffffff" fill-rule="evenodd" stroke-width="1" d="M108.253+737.5L129.904+750L129.904+775L108.253+762.5L108.253+737.5Z" fill="#e4c364" stroke-linecap="butt" opacity="1" stroke-linejoin="miter"/>
<path stroke="#ffffff" fill-rule="evenodd" stroke-width="1" d="M151.554+762.5L173.205+775L173.205+800L151.554+787.5L151.554+762.5Z" fill="#e4c364" stroke-linecap="butt" opacity="1" stroke-linejoin="miter"/>
<path stroke="#ffffff" fill-rule="evenodd" stroke-width="1" d="M129.904+750L151.554+762.5L151.554+787.5L129.904+775L129.904+750Z" fill="#e4d564" stroke-linecap="butt" opacity="1" stroke-linejoin="miter"/>
<path stroke="#ffffff" fill-rule="evenodd" stroke-width="1" d="M173.205+775L194.856+787.5L194.856+812.5L173.205+800L173.205+775Z" fill="#e4d564" stroke-linecap="butt" opacity="1" stroke-linejoin="miter"/>
<path stroke="#ffffff" fill-rule="evenodd" stroke-width="1" d="M194.856+787.5L216.506+800L216.506+825L194.856+812.5L194.856+787.5Z" fill="#e4c364" stroke-linecap="butt" opacity="1" stroke-linejoin="miter"/>
<path stroke="#ffffff" fill-rule="evenodd" stroke-width="1" d="M238.157+812.5L259.808+825L259.808+850L238.157+837.5L238.157+812.5Z" fill="#e4c364" stroke-linecap="butt" opacity="1" stroke-linejoin="miter"/>
<path stroke="#ffffff" fill-rule="evenodd" stroke-width="1" d="M216.506+800L238.157+812.5L238.157+837.5L216.506+825L216.506+800Z" fill="#e4d564" stroke-linecap="butt" opacity="1" stroke-linejoin="miter"/>
<path stroke="#ffffff" fill-rule="evenodd" stroke-width="1" d="M259.808+825L281.458+837.5L281.458+862.5L259.808+850L259.808+825Z" fill="#e4d564" stroke-linecap="butt" opacity="1" stroke-linejoin="miter"/>
<path stroke="#ffffff" fill-rule="evenodd" stroke-width="1" d="M281.458+837.5L303.109+850L303.109+875L281.458+862.5L281.458+837.5Z" fill="#e4c364" stroke-linecap="butt" opacity="1" stroke-linejoin="miter"/>
<path stroke="#ffffff" fill-rule="evenodd" stroke-width="1" d="M368.061+887.5L389.711+900L389.711+925L368.061+912.5L368.061+887.5Z" fill="#e4c364" stroke-linecap="butt" opacity="1" stroke-linejoin="miter"/>
<path stroke="#ffffff" fill-rule="evenodd" stroke-width="1" d="M303.109+850L324.76+862.5L324.76+887.5L303.109+875L303.109+850Z" fill="#e4d564" stroke-linecap="butt" opacity="1" stroke-linejoin="miter"/>
<path stroke="#ffffff" fill-rule="evenodd" stroke-width="1" d="M324.76+862.5L346.41+875L346.41+900L324.76+887.5L324.76+862.5Z" fill="#e4c364" stroke-linecap="butt" opacity="1" stroke-linejoin="miter"/>
<path stroke="#ffffff" fill-rule="evenodd" stroke-width="1" d="M346.41+875L368.061+887.5L368.061+912.5L346.41+900L346.41+875Z" fill="#e4d564" stroke-linecap="butt" opacity="1" stroke-linejoin="miter"/>
<path stroke="#ffffff" fill-rule="evenodd" stroke-width="1" d="M389.711+900L411.362+912.5L411.362+937.5L389.711+925L389.711+900Z" fill="#e4d564" stroke-linecap="butt" opacity="1" stroke-linejoin="miter"/>
</g>
<g opacity="1">
<g opacity="1">
<path stroke="#ffffff" fill-rule="evenodd" stroke-width="1" d="M736.122+725L714.471+737.5L714.471+762.5L736.122+750L736.122+725Z" fill="#e4c364" stroke-linecap="butt" opacity="1" stroke-linejoin="miter"/>
<path stroke="#ffffff" fill-rule="evenodd" stroke-width="1" d="M714.471+737.5L692.82+750L692.82+775L714.471+762.5L714.471+737.5Z" fill="#e4d564" stroke-linecap="butt" opacity="1" stroke-linejoin="miter"/>
<path stroke="#ffffff" fill-rule="evenodd" stroke-width="1" d="M671.17+762.5L649.519+775L649.519+800L671.17+787.5L671.17+762.5Z" fill="#e4d564" stroke-linecap="butt" opacity="1" stroke-linejoin="miter"/>
<path stroke="#ffffff" fill-rule="evenodd" stroke-width="1" d="M692.82+750L671.17+762.5L671.17+787.5L692.82+775L692.82+750Z" fill="#e4c364" stroke-linecap="butt" opacity="1" stroke-linejoin="miter"/>
<path stroke="#ffffff" fill-rule="evenodd" stroke-width="1" d="M649.519+775L627.868+787.5L627.868+812.5L649.519+800L649.519+775Z" fill="#e4c364" stroke-linecap="butt" opacity="1" stroke-linejoin="miter"/>
<path stroke="#ffffff" fill-rule="evenodd" stroke-width="1" d="M627.868+787.5L606.218+800L606.218+825L627.868+812.5L627.868+787.5Z" fill="#e4d564" stroke-linecap="butt" opacity="1" stroke-linejoin="miter"/>
<path stroke="#ffffff" fill-rule="evenodd" stroke-width="1" d="M584.567+812.5L562.917+825L562.917+850L584.567+837.5L584.567+812.5Z" fill="#e4d564" stroke-linecap="butt" opacity="1" stroke-linejoin="miter"/>
<path stroke="#ffffff" fill-rule="evenodd" stroke-width="1" d="M606.218+800L584.567+812.5L584.567+837.5L606.218+825L606.218+800Z" fill="#e4c364" stroke-linecap="butt" opacity="1" stroke-linejoin="miter"/>
<path stroke="#ffffff" fill-rule="evenodd" stroke-width="1" d="M562.917+825L541.266+837.5L541.266+862.5L562.917+850L562.917+825Z" fill="#e4c364" stroke-linecap="butt" opacity="1" stroke-linejoin="miter"/>
<path stroke="#ffffff" fill-rule="evenodd" stroke-width="1" d="M541.266+837.5L519.615+850L519.615+875L541.266+862.5L541.266+837.5Z" fill="#e4d564" stroke-linecap="butt" opacity="1" stroke-linejoin="miter"/>
<path stroke="#ffffff" fill-rule="evenodd" stroke-width="1" d="M454.663+887.5L433.013+900L433.013+925L454.663+912.5L454.663+887.5Z" fill="#e4d564" stroke-linecap="butt" opacity="1" stroke-linejoin="miter"/>
<path stroke="#ffffff" fill-rule="evenodd" stroke-width="1" d="M519.615+850L497.965+862.5L497.965+887.5L519.615+875L519.615+850Z" fill="#e4c364" stroke-linecap="butt" opacity="1" stroke-linejoin="miter"/>
<path stroke="#ffffff" fill-rule="evenodd" stroke-width="1" d="M497.965+862.5L476.314+875L476.314+900L497.965+887.5L497.965+862.5Z" fill="#e4d564" stroke-linecap="butt" opacity="1" stroke-linejoin="miter"/>
<path stroke="#ffffff" fill-rule="evenodd" stroke-width="1" d="M476.314+875L454.663+887.5L454.663+912.5L476.314+900L476.314+875Z" fill="#e4c364" stroke-linecap="butt" opacity="1" stroke-linejoin="miter"/>
<path stroke="#ffffff" fill-rule="evenodd" stroke-width="1" d="M433.013+900L411.362+912.5L411.362+937.5L433.013+925L433.013+900Z" fill="#e4c364" stroke-linecap="butt" opacity="1" stroke-linejoin="miter"/>
</g>
<g opacity="1">
<path stroke="#ffffff" fill-rule="evenodd" stroke-width="1" d="M736.122+750L714.471+762.5L714.471+787.5L736.122+775L736.122+750Z" fill="#e4d564" stroke-linecap="butt" opacity="1" stroke-linejoin="miter"/>
<path stroke="#ffffff" fill-rule="evenodd" stroke-width="1" d="M714.471+762.5L692.82+775L692.82+800L714.471+787.5L714.471+762.5Z" fill="#e4c364" stroke-linecap="butt" opacity="1" stroke-linejoin="miter"/>
<path stroke="#ffffff" fill-rule="evenodd" stroke-width="1" d="M671.17+787.5L649.519+800L649.519+825L671.17+812.5L671.17+787.5Z" fill="#e4c364" stroke-linecap="butt" opacity="1" stroke-linejoin="miter"/>
<path stroke="#ffffff" fill-rule="evenodd" stroke-width="1" d="M692.82+775L671.17+787.5L671.17+812.5L692.82+800L692.82+775Z" fill="#e4d564" stroke-linecap="butt" opacity="1" stroke-linejoin="miter"/>
<path stroke="#ffffff" fill-rule="evenodd" stroke-width="1" d="M649.519+800L627.868+812.5L627.868+837.5L649.519+825L649.519+800Z" fill="#e4d564" stroke-linecap="butt" opacity="1" stroke-linejoin="miter"/>
<path stroke="#ffffff" fill-rule="evenodd" stroke-width="1" d="M627.868+812.5L606.218+825L606.218+850L627.868+837.5L627.868+812.5Z" fill="#e4c364" stroke-linecap="butt" opacity="1" stroke-linejoin="miter"/>
<path stroke="#ffffff" fill-rule="evenodd" stroke-width="1" d="M584.567+837.5L562.917+850L562.917+875L584.567+862.5L584.567+837.5Z" fill="#e4c364" stroke-linecap="butt" opacity="1" stroke-linejoin="miter"/>
<path stroke="#ffffff" fill-rule="evenodd" stroke-width="1" d="M606.218+825L584.567+837.5L584.567+862.5L606.218+850L606.218+825Z" fill="#e4d564" stroke-linecap="butt" opacity="1" stroke-linejoin="miter"/>
<path stroke="#ffffff" fill-rule="evenodd" stroke-width="1" d="M562.917+850L541.266+862.5L541.266+887.5L562.917+875L562.917+850Z" fill="#e4d564" stroke-linecap="butt" opacity="1" stroke-linejoin="miter"/>
<path stroke="#ffffff" fill-rule="evenodd" stroke-width="1" d="M541.266+862.5L519.615+875L519.615+900L541.266+887.5L541.266+862.5Z" fill="#e4c364" stroke-linecap="butt" opacity="1" stroke-linejoin="miter"/>
<path stroke="#ffffff" fill-rule="evenodd" stroke-width="1" d="M454.663+912.5L433.013+925L433.013+950L454.663+937.5L454.663+912.5Z" fill="#e4c364" stroke-linecap="butt" opacity="1" stroke-linejoin="miter"/>
<path stroke="#ffffff" fill-rule="evenodd" stroke-width="1" d="M519.615+875L497.965+887.5L497.965+912.5L519.615+900L519.615+875Z" fill="#e4d564" stroke-linecap="butt" opacity="1" stroke-linejoin="miter"/>
<path stroke="#ffffff" fill-rule="evenodd" stroke-width="1" d="M497.965+887.5L476.314+900L476.314+925L497.965+912.5L497.965+887.5Z" fill="#e4c364" stroke-linecap="butt" opacity="1" stroke-linejoin="miter"/>
<path stroke="#ffffff" fill-rule="evenodd" stroke-width="1" d="M476.314+900L454.663+912.5L454.663+937.5L476.314+925L476.314+900Z" fill="#e4d564" stroke-linecap="butt" opacity="1" stroke-linejoin="miter"/>
<path stroke="#ffffff" fill-rule="evenodd" stroke-width="1" d="M433.013+925L411.362+937.5L411.362+962.5L433.013+950L433.013+925Z" fill="#e4d564" stroke-linecap="butt" opacity="1" stroke-linejoin="miter"/>
</g>
</g>
<g opacity="1">
<path stroke="#ffffff" fill-rule="evenodd" stroke-width="1" d="M21.6506+737.5L43.3013+750L43.3013+775L21.6506+762.5L21.6506+737.5Z" fill="#e4c364" stroke-linecap="butt" opacity="1" stroke-linejoin="miter"/>
<path stroke="#ffffff" fill-rule="evenodd" stroke-width="1" d="M64.9519+762.5L86.6025+775L86.6025+800L64.9519+787.5L64.9519+762.5Z" fill="#e4c364" stroke-linecap="butt" opacity="1" stroke-linejoin="miter"/>
<path stroke="#ffffff" fill-rule="evenodd" stroke-width="1" d="M43.3013+750L64.9519+762.5L64.9519+787.5L43.3013+775L43.3013+750Z" fill="#e4d564" stroke-linecap="butt" opacity="1" stroke-linejoin="miter"/>
<path stroke="#ffffff" fill-rule="evenodd" stroke-width="1" d="M86.6025+775L108.253+787.5L108.253+812.5L86.6025+800L86.6025+775Z" fill="#e4d564" stroke-linecap="butt" opacity="1" stroke-linejoin="miter"/>
<path stroke="#ffffff" fill-rule="evenodd" stroke-width="1" d="M108.253+787.5L129.904+800L129.904+825L108.253+812.5L108.253+787.5Z" fill="#e4c364" stroke-linecap="butt" opacity="1" stroke-linejoin="miter"/>
<path stroke="#ffffff" fill-rule="evenodd" stroke-width="1" d="M151.554+812.5L173.205+825L173.205+850L151.554+837.5L151.554+812.5Z" fill="#e4c364" stroke-linecap="butt" opacity="1" stroke-linejoin="miter"/>
<path stroke="#ffffff" fill-rule="evenodd" stroke-width="1" d="M129.904+800L151.554+812.5L151.554+837.5L129.904+825L129.904+800Z" fill="#e4d564" stroke-linecap="butt" opacity="1" stroke-linejoin="miter"/>
<path stroke="#ffffff" fill-rule="evenodd" stroke-width="1" d="M173.205+825L194.856+837.5L194.856+862.5L173.205+850L173.205+825Z" fill="#e4d564" stroke-linecap="butt" opacity="1" stroke-linejoin="miter"/>
<path stroke="#ffffff" fill-rule="evenodd" stroke-width="1" d="M194.856+837.5L216.506+850L216.506+875L194.856+862.5L194.856+837.5Z" fill="#e4c364" stroke-linecap="butt" opacity="1" stroke-linejoin="miter"/>
<path stroke="#ffffff" fill-rule="evenodd" stroke-width="1" d="M238.157+862.5L259.808+875L259.808+900L238.157+887.5L238.157+862.5Z" fill="#e4c364" stroke-linecap="butt" opacity="1" stroke-linejoin="miter"/>
<path stroke="#ffffff" fill-rule="evenodd" stroke-width="1" d="M216.506+850L238.157+862.5L238.157+887.5L216.506+875L216.506+850Z" fill="#e4d564" stroke-linecap="butt" opacity="1" stroke-linejoin="miter"/>
<path stroke="#ffffff" fill-rule="evenodd" stroke-width="1" d="M259.808+875L281.458+887.5L281.458+912.5L259.808+900L259.808+875Z" fill="#e4d564" stroke-linecap="butt" opacity="1" stroke-linejoin="miter"/>
<path stroke="#ffffff" fill-rule="evenodd" stroke-width="1" d="M281.458+887.5L303.109+900L303.109+925L281.458+912.5L281.458+887.5Z" fill="#e4c364" stroke-linecap="butt" opacity="1" stroke-linejoin="miter"/>
<path stroke="#ffffff" fill-rule="evenodd" stroke-width="1" d="M368.061+937.5L389.711+950L389.711+975L368.061+962.5L368.061+937.5Z" fill="#e4c364" stroke-linecap="butt" opacity="1" stroke-linejoin="miter"/>
<path stroke="#ffffff" fill-rule="evenodd" stroke-width="1" d="M303.109+900L324.76+912.5L324.76+937.5L303.109+925L303.109+900Z" fill="#e4d564" stroke-linecap="butt" opacity="1" stroke-linejoin="miter"/>
<path stroke="#ffffff" fill-rule="evenodd" stroke-width="1" d="M324.76+912.5L346.41+925L346.41+950L324.76+937.5L324.76+912.5Z" fill="#e4c364" stroke-linecap="butt" opacity="1" stroke-linejoin="miter"/>
<path stroke="#ffffff" fill-rule="evenodd" stroke-width="1" d="M346.41+925L368.061+937.5L368.061+962.5L346.41+950L346.41+925Z" fill="#e4d564" stroke-linecap="butt" opacity="1" stroke-linejoin="miter"/>
<path stroke="#ffffff" fill-rule="evenodd" stroke-width="1" d="M389.711+950L411.362+962.5L411.362+987.5L389.711+975L389.711+950Z" fill="#e4d564" stroke-linecap="butt" opacity="1" stroke-linejoin="miter"/>
</g>
<path stroke="#ffffff" fill-rule="evenodd" stroke-width="1" d="M736.122+800L714.471+812.5L714.471+837.5L736.122+825L736.122+800Z" fill="#e4d564" stroke-linecap="butt" opacity="1" stroke-linejoin="miter"/>
<path stroke="#ffffff" fill-rule="evenodd" stroke-width="1" d="M714.471+812.5L692.82+825L692.82+850L714.471+837.5L714.471+812.5Z" fill="#e4c364" stroke-linecap="butt" opacity="1" stroke-linejoin="miter"/>
<path stroke="#ffffff" fill-rule="evenodd" stroke-width="1" d="M671.17+837.5L649.519+850L649.519+875L671.17+862.5L671.17+837.5Z" fill="#e4c364" stroke-linecap="butt" opacity="1" stroke-linejoin="miter"/>
<path stroke="#ffffff" fill-rule="evenodd" stroke-width="1" d="M692.82+825L671.17+837.5L671.17+862.5L692.82+850L692.82+825Z" fill="#e4d564" stroke-linecap="butt" opacity="1" stroke-linejoin="miter"/>
<path stroke="#ffffff" fill-rule="evenodd" stroke-width="1" d="M649.519+850L627.868+862.5L627.868+887.5L649.519+875L649.519+850Z" fill="#e4d564" stroke-linecap="butt" opacity="1" stroke-linejoin="miter"/>
<path stroke="#ffffff" fill-rule="evenodd" stroke-width="1" d="M627.868+862.5L606.218+875L606.218+900L627.868+887.5L627.868+862.5Z" fill="#e4c364" stroke-linecap="butt" opacity="1" stroke-linejoin="miter"/>
<path stroke="#ffffff" fill-rule="evenodd" stroke-width="1" d="M584.567+887.5L562.917+900L562.917+925L584.567+912.5L584.567+887.5Z" fill="#e4c364" stroke-linecap="butt" opacity="1" stroke-linejoin="miter"/>
<path stroke="#ffffff" fill-rule="evenodd" stroke-width="1" d="M606.218+875L584.567+887.5L584.567+912.5L606.218+900L606.218+875Z" fill="#e4d564" stroke-linecap="butt" opacity="1" stroke-linejoin="miter"/>
<path stroke="#ffffff" fill-rule="evenodd" stroke-width="1" d="M562.917+900L541.266+912.5L541.266+937.5L562.917+925L562.917+900Z" fill="#e4d564" stroke-linecap="butt" opacity="1" stroke-linejoin="miter"/>
<path stroke="#ffffff" fill-rule="evenodd" stroke-width="1" d="M541.266+912.5L519.615+925L519.615+950L541.266+937.5L541.266+912.5Z" fill="#e4c364" stroke-linecap="butt" opacity="1" stroke-linejoin="miter"/>
<path stroke="#ffffff" fill-rule="evenodd" stroke-width="1" d="M454.663+962.5L433.013+975L433.013+1000L454.663+987.5L454.663+962.5Z" fill="#e4c364" stroke-linecap="butt" opacity="1" stroke-linejoin="miter"/>
<path stroke="#ffffff" fill-rule="evenodd" stroke-width="1" d="M519.615+925L497.965+937.5L497.965+962.5L519.615+950L519.615+925Z" fill="#e4d564" stroke-linecap="butt" opacity="1" stroke-linejoin="miter"/>
<path stroke="#ffffff" fill-rule="evenodd" stroke-width="1" d="M497.965+937.5L476.314+950L476.314+975L497.965+962.5L497.965+937.5Z" fill="#e4c364" stroke-linecap="butt" opacity="1" stroke-linejoin="miter"/>
<path stroke="#ffffff" fill-rule="evenodd" stroke-width="1" d="M476.314+950L454.663+962.5L454.663+987.5L476.314+975L476.314+950Z" fill="#e4d564" stroke-linecap="butt" opacity="1" stroke-linejoin="miter"/>
<path stroke="#ffffff" fill-rule="evenodd" stroke-width="1" d="M433.013+975L411.362+987.5L411.362+1012.5L433.013+1000L433.013+975Z" fill="#e4d564" stroke-linecap="butt" opacity="1" stroke-linejoin="miter"/>
<path stroke="#6c7076" fill-rule="evenodd" stroke-opacity="0" stroke-width="4" d="M21.6506+437.5L411.362+662.5L411.362+687.5L21.6506+462.5L21.6506+437.5Z" fill="#95979c" stroke-linecap="butt" opacity="1" stroke-linejoin="miter"/>
<path stroke="#f5eeee" fill-rule="evenodd" stroke-opacity="0" stroke-width="0.1" d="M21.6506+212.5L346.41+25L736.122+250L411.362+437.5L21.6506+212.5Z" fill="#7ca9ef" stroke-linecap="butt" opacity="1" stroke-linejoin="miter"/>
</g>
</g>
</svg>
