<?xml version="1.0" encoding="UTF-8" standalone="no"?> <!-- Created with Vectornator for iOS (http://vectornator.io/) --><!DOCTYPE svg PUBLIC "-//W3C//DTD SVG 1.1//EN" "http://www.w3.org/Graphics/SVG/1.1/DTD/svg11.dtd">
<svg height="100%" style="fill-rule:evenodd;clip-rule:evenodd;stroke-linecap:round;stroke-linejoin:round;" xmlns:xlink="http://www.w3.org/1999/xlink" xmlns="http://www.w3.org/2000/svg" xml:space="preserve" width="100%" xmlns="http://vectornator.io" version="1.1" viewBox="0 0 160.9 166">
<metadata>
<key="DimensionsVisible" value="1"/>
<key="SnapToGrid" value="1"/>
<key="SnapToPoints" value="0"/>
<key="GuidesVisible" value="1"/>
<key="RulersVisible" value="1"/>
<key="SnapToEdges" value="0"/>
<key="DisplayWhiteBackground" value="1"/>
<key="idAngle" value="30"/>
<key="SnapToGuides" value="1"/>
<key="GridSpacing" value="52"/>
<key="Units" value="Pixels"/>
<key="DynamicGuides" value="1"/>
<key="New" value="1"/>
</metadata>
<defs/>
<g id="Layer 1" layerName="Layer 1">
<g opacity="1">
<path d="M7.25651e-06+85.74L85.74+85.74L85.74+85.74L7.25651e-06+85.74Z" opacity="1" fill="#43ae68"/>
<g opacity="1">
<path d="M7.25651e-06+85.74L171.48+85.74L171.48+171.48L1.4513e-05+171.48L7.25651e-06+85.74Z" opacity="1" fill="#ffeec3"/>
<path d="M112.198+85.7406C112.1+85.744+112.001+85.7547+111.904+85.7724C111.363+85.8523+110.877+86.1462+110.555+86.5879L95.9237+101.22L90.6566+95.9525L97.3638+89.2453C97.9662+88.6598+98.1473+87.7644+97.8199+86.9908C97.4924+86.2171+96.7236+85.7238+95.8839+85.7485C95.3547+85.7643+94.8525+85.9855+94.4836+86.3652L86.3363+94.5124C85.5412+95.3079+85.5412+96.5972+86.3363+97.3926L93.0435+104.1L86.3363+110.807C85.5412+111.602+85.5412+112.892+86.3363+113.687L93.0435+120.394L86.3363+127.101C85.5412+127.897+85.5412+129.186+86.3363+129.982L93.0435+136.689L86.3363+143.396C85.5412+144.191+85.5412+145.481+86.3363+146.276L93.0435+152.983L86.3363+159.691C85.5412+160.486+85.5412+161.775+86.3363+162.571L94.4836+170.718C95.279+171.513+96.5683+171.513+97.3638+170.718L112.218+155.864L117.485+161.131L110.778+167.838C110.246+168.349+110.032+169.107+110.218+169.821C110.404+170.535+110.961+171.092+111.675+171.278C112.389+171.464+113.147+171.25+113.658+170.718L120.365+164.011L127.073+170.718C127.584+171.25+128.342+171.464+129.056+171.278C129.77+171.092+130.327+170.535+130.513+169.821C130.699+169.107+130.485+168.349+129.953+167.838L122.044+159.929C121.914+159.748+121.756+159.59+121.575+159.46L115.098+152.983L120.365+147.716L135.188+162.535C135.199+162.547+135.209+162.559+135.22+162.571L143.367+170.718C143.797+171.167+144.409+171.395+145.029+171.337C145.648+171.279+146.207+170.941+146.546+170.42L161.102+155.864L166.369+161.131L159.662+167.838C159.13+168.349+158.915+169.107+159.101+169.821C159.287+170.535+159.845+171.092+160.559+171.278C161.272+171.464+162.031+171.25+162.542+170.718L170.689+162.571C171.484+161.775+171.484+160.486+170.689+159.691L163.982+152.983L170.689+146.272C171.484+145.477+171.484+144.187+170.689+143.392L163.982+136.689L170.689+129.978C171.484+129.182+171.484+127.893+170.689+127.097L163.982+120.394L170.689+113.683C171.484+112.888+171.484+111.598+170.689+110.803L163.982+104.1L170.689+97.3886C171.484+96.5932+171.484+95.3039+170.689+94.5084L162.816+86.6357C162.428+86.0617+161.775+85.7245+161.082+85.7406C160.545+85.7533+160.034+85.9778+159.662+86.3652L144.807+101.22L139.54+95.9525L146.247+89.2453C146.85+88.6598+147.031+87.7644+146.703+86.9908C146.376+86.2171+145.607+85.7238+144.767+85.7485C144.238+85.7643+143.736+85.9855+143.367+86.3652L136.66+93.0723L129.953+86.3652C129.572+85.969+129.047+85.7438+128.497+85.7406C127.664+85.7358+126.912+86.2389+126.598+87.0107C126.284+87.7826+126.472+88.6676+127.073+89.2453L135.12+97.2892C135.152+97.3248+135.186+97.3593+135.22+97.3926L141.927+104.1L136.66+109.367L121.905+94.6119C121.873+94.5762+121.84+94.5417+121.806+94.5084L113.949+86.6556C113.562+86.0692+112.9+85.7234+112.198+85.7406ZM112.218+90.6854L117.485+95.9485L117.485+95.9525L110.778+102.66L95.9237+117.514L90.6606+112.247L97.3638+105.54L112.218+90.6854ZM161.102+90.6854L166.369+95.9485L144.807+117.514L139.544+112.247L146.247+105.54L161.102+90.6854ZM120.365+98.8367L135.22+113.687L141.927+120.394L136.664+125.661L136.66+125.661L121.841+110.839L121.806+110.803L115.098+104.1L120.365+98.8367ZM112.218+106.98L117.485+112.243L110.778+118.954L95.9237+133.809L90.6606+128.542L97.3638+121.834L112.218+106.98ZM161.102+106.98L166.369+112.243L144.807+133.809L139.544+128.542L146.247+121.834L161.102+106.98ZM120.365+115.131L141.927+136.689L136.664+141.956L136.66+141.956L121.905+127.205C121.888+127.186+121.871+127.167+121.853+127.149L121.806+127.101C121.806+127.1+121.806+127.099+121.806+127.097L115.098+120.394L120.365+115.131ZM112.218+123.274L117.485+128.538L110.778+135.249L95.9237+150.103L90.6606+144.836L97.3638+138.129L112.218+123.274ZM161.102+123.274L166.369+128.538L144.807+150.103L139.544+144.836L146.247+138.129L161.102+123.274ZM120.365+131.426L141.927+152.983L136.664+158.25L121.905+143.495C121.895+143.485+121.884+143.474+121.873+143.464L121.806+143.396L121.806+143.392L115.098+136.689L120.365+131.426ZM112.218+139.569L117.485+144.832L110.778+151.543L95.9237+166.398L90.6606+161.131L97.3638+154.423L112.218+139.569ZM161.102+139.569L166.369+144.832L159.877+151.324C159.711+151.446+159.565+151.592+159.443+151.758L144.807+166.398L139.544+161.131L146.247+154.423L161.102+139.569Z" opacity="1" fill="#9fccaf"/>


<path d="M26.6528+85.7406C26.554+85.744+26.4557+85.7547+26.3584+85.7724C25.8177+85.8523+25.3317+86.1462+25.0098+86.5879L10.3782+101.22L5.1111+95.9525L11.8183+89.2453C12.4207+88.6598+12.6018+87.7644+12.2744+86.9908C11.947+86.2171+11.1781+85.7238+10.3384+85.7486C9.80923+85.7643+9.30699+85.9855+8.93808+86.3652L0.790817+94.5124C-0.00429132+95.3079-0.00429127+96.5972+0.790817+97.3926L7.49799+104.1L0.790819+110.807C-0.00428994+111.602-0.00428989+112.892+0.790819+113.687L7.49799+120.394L0.79082+127.101C-0.00428856+127.897-0.00428851+129.186+0.79082+129.982L7.49799+136.689L0.790821+143.396C-0.00428718+144.191-0.00428713+145.481+0.790822+146.276L7.49799+152.983L0.790823+159.691C-0.0042858+160.486-0.00428575+161.775+0.790823+162.571L8.93809+170.718C9.73353+171.513+11.0228+171.513+11.8183+170.718L26.6727+155.864L31.9398+161.131L25.2326+167.838C24.7005+168.349+24.4862+169.107+24.6723+169.821C24.8584+170.535+25.4158+171.092+26.1295+171.278C26.8433+171.464+27.6019+171.25+28.1128+170.718L34.82+164.011L41.5271+170.718C42.038+171.25+42.7966+171.464+43.5104+171.278C44.2242+171.092+44.7816+170.535+44.9677+169.821C45.1537+169.107+44.9394+168.349+44.4073+167.838L36.4988+159.929C36.369+159.748+36.2104+159.59+36.0293+159.46L29.5529+152.983L34.82+147.716L49.6426+162.535C49.6531+162.547+49.6637+162.559+49.6744+162.571L57.8217+170.718C58.2519+171.167+58.8638+171.395+59.4831+171.337C60.1023+171.279+60.6611+170.941+61.0002+170.42L75.5563+155.864L80.8234+161.131L74.1162+167.838C73.5841+168.349+73.3698+169.107+73.5559+169.821C73.7419+170.535+74.2994+171.092+75.0131+171.278C75.7269+171.464+76.4855+171.25+76.9964+170.718L85.1437+162.571C85.9388+161.775+85.9388+160.486+85.1437+159.691L78.4365+152.983L85.1436+146.272C85.9388+145.477+85.9388+144.187+85.1436+143.392L78.4365+136.689L85.1436+129.978C85.9388+129.182+85.9388+127.893+85.1436+127.098L78.4365+120.394L85.1436+113.683C85.9388+112.888+85.9388+111.598+85.1436+110.803L78.4365+104.1L85.1436+97.3886C85.9388+96.5932+85.9388+95.3039+85.1436+94.5084L77.2709+86.6357C76.8826+86.0617+76.2292+85.7245+75.5364+85.7406C74.9991+85.7533+74.4887+85.9778+74.1162+86.3652L59.2618+101.22L53.9947+95.9525L60.7019+89.2453C61.3043+88.6598+61.4854+87.7644+61.158+86.9908C60.8305+86.2171+60.0617+85.7238+59.222+85.7485C58.6928+85.7643+58.1906+85.9855+57.8217+86.3652L51.1145+93.0723L44.4073+86.3652C44.0261+85.969+43.501+85.7438+42.9513+85.7406C42.1182+85.7358+41.3661+86.2389+41.0525+87.0107C40.7388+87.7826+40.9268+88.6676+41.5271+89.2453L49.5749+97.2892C49.6069+97.3248+49.64+97.3593+49.6744+97.3926L56.3816+104.1L51.1145+109.367L36.3595+94.6119C36.3276+94.5762+36.2944+94.5417+36.2601+94.5084L28.4032+86.6556C28.0165+86.0692+27.355+85.7234+26.6528+85.7406ZM26.6727+90.6854L31.9398+95.9485L31.9398+95.9525L25.2326+102.66L10.3782+117.514L5.11507+112.247L11.8183+105.54L26.6727+90.6854ZM75.5563+90.6854L80.8234+95.9485L59.2618+117.514L53.9987+112.247L60.7019+105.54L75.5563+90.6854ZM34.82+98.8367L49.6744+113.687L56.3816+120.394L51.1185+125.661L51.1145+125.661L36.2959+110.839L36.2601+110.803L29.5529+104.1L34.82+98.8367ZM26.6727+106.98L31.9398+112.243L25.2326+118.954L10.3782+133.809L5.11508+128.542L11.8183+121.834L26.6727+106.98ZM75.5563+106.98L80.8234+112.243L59.2618+133.809L53.9987+128.542L60.7019+121.834L75.5563+106.98ZM34.82+115.131L56.3816+136.689L51.1185+141.956L51.1145+141.956L36.3595+127.205C36.3426+127.186+36.3254+127.167+36.3078+127.149L36.2601+127.101C36.2601+127.1+36.2601+127.099+36.2601+127.098L29.5529+120.394L34.82+115.131ZM26.6727+123.274L31.9398+128.538L25.2326+135.249L10.3782+150.103L5.11508+144.836L11.8183+138.129L26.6727+123.274ZM75.5563+123.274L80.8234+128.538L59.2618+150.103L53.9987+144.836L60.7019+138.129L75.5563+123.274ZM34.82+131.426L56.3816+152.983L51.1185+158.25L36.3595+143.495C36.349+143.485+36.3384+143.474+36.3277+143.464L36.2601+143.396L36.2601+143.392L29.5529+136.689L34.82+131.426ZM26.6727+139.569L31.9398+144.832L25.2326+151.543L10.3782+166.398L5.11508+161.131L11.8183+154.423L26.6727+139.569ZM75.5563+139.569L80.8234+144.832L74.331+151.324C74.1654+151.446+74.0192+151.593+73.8974+151.758L59.2618+166.398L53.9987+161.131L60.7019+154.423L75.5563+139.569Z" opacity="1" fill="#9fccaf"/>
</g>
<g opacity="1">
<path d="M0+1.4513e-05L171.48+0L171.48+85.74L7.25651e-06+85.74L0+1.4513e-05Z" opacity="1" fill="#ffeec3"/>
<path d="M112.198+0.000617131C112.1+0.0040701+112.001+0.0147066+111.904+0.0324423C111.363+0.112332+110.877+0.406194+110.555+0.847965L95.9237+15.4796L90.6566+10.2125L97.3637+3.50537C97.9662+2.91981+98.1473+2.02447+97.8199+1.2508C97.4924+0.477118+96.7236-0.01619+95.8839+0.00857488C95.3547+0.0243423+94.8525+0.245498+94.4836+0.625189L86.3363+8.77245C85.5412+9.56789+85.5412+10.8572+86.3363+11.6526L93.0435+18.3598L86.3363+25.067C85.5412+25.8624+85.5412+27.1517+86.3363+27.9472L93.0435+34.6543L86.3363+41.3615C85.5412+42.1569+85.5412+43.4463+86.3363+44.2417L93.0435+50.9489L86.3363+57.656C85.5412+58.4515+85.5412+59.7408+86.3363+60.5362L93.0435+67.2434L86.3363+73.9506C85.5412+74.746+85.5412+76.0353+86.3363+76.8308L94.4836+84.978C95.279+85.7731+96.5683+85.7731+97.3638+84.978L112.218+70.1236L117.485+75.3907L110.778+82.0978C110.246+82.6087+110.032+83.3673+110.218+84.0811C110.404+84.7949+110.961+85.3523+111.675+85.5384C112.389+85.7244+113.147+85.5101+113.658+84.978L120.365+78.2708L127.073+84.978C127.583+85.5101+128.342+85.7244+129.056+85.5384C129.77+85.3523+130.327+84.7949+130.513+84.0811C130.699+83.3673+130.485+82.6087+129.953+82.0978L122.044+74.1893C121.914+74.0082+121.756+73.8496+121.575+73.7198L115.098+67.2434L120.365+61.9763L135.188+76.7949C135.199+76.807+135.209+76.8189+135.22+76.8307L143.367+84.978C143.797+85.4272+144.409+85.6551+145.029+85.597C145.648+85.5389+146.207+85.201+146.546+84.6797L161.102+70.1236L166.369+75.3907L159.662+82.0978C159.13+82.6087+158.915+83.3673+159.101+84.0811C159.287+84.7949+159.845+85.3523+160.559+85.5384C161.272+85.7244+162.031+85.5101+162.542+84.978L170.689+76.8307C171.484+76.0353+171.484+74.746+170.689+73.9506L163.982+67.2434L170.689+60.5322C171.484+59.7368+171.484+58.4475+170.689+57.6521L163.982+50.9489L170.689+44.2377C171.484+43.4423+171.484+42.153+170.689+41.3575L163.982+34.6543L170.689+27.9432C171.484+27.1477+171.484+25.8584+170.689+25.063L163.982+18.3598L170.689+11.6487C171.484+10.8532+171.484+9.56391+170.689+8.76847L162.816+0.895698C162.428+0.32174+161.775-0.0154651+161.082+0.000613081C160.545+0.0133148+160.034+0.237806+159.662+0.625184L144.807+15.4796L139.54+10.2125L146.247+3.50537C146.85+2.9198+147.031+2.02447+146.703+1.25079C146.376+0.477114+145.607-0.0161941+144.767+0.00857074C144.238+0.0243382+143.736+0.245494+143.367+0.625185L136.66+7.33236L129.953+0.625186C129.572+0.229056+129.047+0.00380766+128.497+0.00061572C127.664-0.00416935+126.912+0.498884+126.598+1.27074C126.284+2.0426+126.472+2.92766+127.073+3.50537L135.12+11.5492C135.152+11.5848+135.186+11.6193+135.22+11.6526L141.927+18.3598L136.66+23.6269L121.905+8.8719C121.873+8.83627+121.84+8.80177+121.806+8.76847L113.949+0.915593C113.562+0.329217+112.9-0.0165717+112.198+0.000617131ZM112.218+4.94547L117.485+10.2086L117.485+10.2125L110.778+16.9197L95.9237+31.7742L90.6606+26.5071L97.3638+19.7999L112.218+4.94547ZM161.102+4.94546L166.369+10.2086L144.807+31.7741L139.544+26.5071L146.247+19.7999L161.102+4.94546ZM120.365+13.0967L135.22+27.9472L141.927+34.6543L136.664+39.9214L136.66+39.9214L121.841+25.0988L121.806+25.063L115.098+18.3598L120.365+13.0967ZM112.218+21.24L117.485+26.5031L110.778+33.2142L95.9237+48.0687L90.6606+42.8016L97.3638+36.0944L112.218+21.24ZM161.102+21.24L166.369+26.5031L144.807+48.0687L139.544+42.8016L146.247+36.0944L161.102+21.24ZM120.365+29.3912L141.927+50.9489L136.664+56.2159L136.66+56.2159L121.905+41.4649C121.888+41.4461+121.871+41.4275+121.853+41.4092L121.806+41.3615C121.806+41.3602+121.806+41.3589+121.806+41.3575L115.098+34.6543L120.365+29.3912ZM112.218+37.5345L117.485+42.7976L110.778+49.5088L95.9237+64.3632L90.6606+59.0961L97.3638+52.389L112.218+37.5345ZM161.102+37.5345L166.369+42.7976L144.807+64.3632L139.544+59.0961L146.247+52.389L161.102+37.5345ZM120.365+45.6858L141.927+67.2434L136.664+72.5105L121.905+57.7555C121.895+57.7448+121.884+57.7342+121.873+57.7237L121.806+57.656L121.806+57.6521L115.098+50.9489L120.365+45.6858ZM112.218+53.8291L117.485+59.0922L110.778+65.8033L95.9237+80.6577L90.6606+75.3907L97.3638+68.6835L112.218+53.8291ZM161.102+53.829L166.369+59.0921L159.877+65.5845C159.711+65.7063+159.565+65.8525+159.443+66.0181L144.807+80.6577L139.544+75.3907L146.247+68.6835L161.102+53.829Z" opacity="1" fill="#9fccaf"/>
<path d="M26.6528+0.000624371C26.554+0.00407734+26.4556+0.0147139+26.3584+0.0324496C25.8177+0.11234+25.3317+0.406201+25.0098+0.847972L10.3782+15.4796L5.11109+10.2126L11.8183+3.50538C12.4207+2.91981+12.6018+2.02448+12.2744+1.2508C11.9469+0.477125+11.1781-0.0161828+10.3384+0.00858212C9.80922+0.0243496+9.30699+0.245505+8.93807+0.625196L0.79081+8.77246C-0.00429858+9.5679-0.00429853+10.8572+0.79081+11.6526L7.49798+18.3598L0.790811+25.067C-0.0042972+25.8624-0.00429715+27.1517+0.790812+27.9472L7.49798+34.6543L0.790813+41.3615C-0.00429582+42.157-0.00429577+43.4463+0.790813+44.2417L7.49799+50.9489L0.790814+57.656C-0.00429444+58.4515-0.00429439+59.7408+0.790814+60.5362L7.49799+67.2434L0.790816+73.9506C-0.00429306+74.746-0.00429301+76.0353+0.790816+76.8308L8.93808+84.978C9.73352+85.7731+11.0228+85.7731+11.8183+84.978L26.6727+70.1236L31.9398+75.3907L25.2326+82.0978C24.7005+82.6087+24.4862+83.3673+24.6723+84.0811C24.8583+84.7949+25.4158+85.3523+26.1295+85.5384C26.8433+85.7244+27.6019+85.5101+28.1128+84.978L34.82+78.2708L41.5271+84.978C42.038+85.5101+42.7966+85.7244+43.5104+85.5384C44.2242+85.3523+44.7816+84.7949+44.9677+84.0811C45.1537+83.3673+44.9394+82.6087+44.4073+82.0978L36.4987+74.1893C36.369+74.0082+36.2104+73.8496+36.0293+73.7198L29.5529+67.2434L34.82+61.9763L49.6426+76.795C49.653+76.807+49.6637+76.8189+49.6744+76.8308L57.8217+84.978C58.2519+85.4272+58.8638+85.6551+59.483+85.597C60.1023+85.5389+60.6611+85.201+61.0002+84.6797L75.5563+70.1236L80.8234+75.3907L74.1162+82.0978C73.5841+82.6087+73.3698+83.3673+73.5559+84.0811C73.7419+84.7949+74.2993+85.3523+75.0131+85.5384C75.7269+85.7244+76.4855+85.5101+76.9964+84.978L85.1436+76.8308C85.9388+76.0353+85.9388+74.746+85.1436+73.9506L78.4365+67.2434L85.1436+60.5322C85.9388+59.7368+85.9388+58.4475+85.1436+57.6521L78.4365+50.9489L85.1436+44.2377C85.9387+43.4423+85.9387+42.153+85.1436+41.3575L78.4365+34.6543L85.1436+27.9432C85.9387+27.1478+85.9387+25.8584+85.1436+25.063L78.4365+18.3598L85.1436+11.6487C85.9387+10.8532+85.9387+9.56391+85.1436+8.76848L77.2709+0.895705C76.8826+0.321747+76.2292-0.0154578+75.5364+0.000620321C74.9991+0.0133221+74.4887+0.237814+74.1162+0.625191L59.2618+15.4796L53.9947+10.2125L60.7018+3.50538C61.3043+2.91981+61.4854+2.02448+61.158+1.2508C60.8305+0.477121+60.0617-0.0161869+59.222+0.00857798C58.6928+0.0243454+58.1906+0.245501+57.8217+0.625192L51.1145+7.33236L44.4073+0.625193C44.0261+0.229063+43.501+0.0038149+42.9513+0.00062296C42.1182-0.00416211+41.3661+0.498891+41.0525+1.27075C40.7388+2.04261+40.9268+2.92767+41.5271+3.50538L49.5749+11.5492C49.6069+11.5848+49.64+11.6193+49.6744+11.6526L56.3816+18.3598L51.1145+23.6269L36.3595+8.87191C36.3276+8.83628+36.2944+8.80178+36.2601+8.76848L28.4032+0.9156C28.0165+0.329224+27.355-0.0165644+26.6528+0.000624371ZM26.6727+4.94547L31.9398+10.2086L31.9398+10.2126L25.2326+16.9197L10.3782+31.7742L5.11507+26.5071L11.8183+19.7999L26.6727+4.94547ZM75.5563+4.94547L80.8234+10.2086L59.2618+31.7742L53.9987+26.5071L60.7018+19.7999L75.5563+4.94547ZM34.82+13.0967L49.6744+27.9472L56.3816+34.6543L51.1185+39.9214L51.1145+39.9214L36.2959+25.0988L36.2601+25.063L29.5529+18.3598L34.82+13.0967ZM26.6727+21.24L31.9398+26.5031L25.2326+33.2143L10.3782+48.0687L5.11507+42.8016L11.8183+36.0944L26.6727+21.24ZM75.5563+21.24L80.8234+26.5031L59.2618+48.0687L53.9987+42.8016L60.7018+36.0944L75.5563+21.24ZM34.82+29.3912L56.3816+50.9489L51.1185+56.2159L51.1145+56.2159L36.3595+41.4649C36.3426+41.4461+36.3254+41.4275+36.3078+41.4093L36.2601+41.3615C36.2601+41.3602+36.2601+41.3589+36.2601+41.3575L29.5529+34.6543L34.82+29.3912ZM26.6727+37.5345L31.9398+42.7976L25.2326+49.5088L10.3782+64.3632L5.11507+59.0961L11.8183+52.389L26.6727+37.5345ZM75.5563+37.5345L80.8234+42.7976L59.2618+64.3632L53.9987+59.0961L60.7018+52.389L75.5563+37.5345ZM34.82+45.6858L56.3816+67.2434L51.1185+72.5105L36.3595+57.7555C36.349+57.7448+36.3384+57.7342+36.3277+57.7237L36.2601+57.656L36.2601+57.6521L29.5529+50.9489L34.82+45.6858ZM26.6727+53.8291L31.9398+59.0922L25.2326+65.8033L10.3782+80.6577L5.11507+75.3907L11.8183+68.6835L26.6727+53.8291ZM75.5563+53.8291L80.8234+59.0922L74.331+65.5845C74.1654+65.7063+74.0192+65.8525+73.8974+66.0181L59.2618+80.6577L53.9987+75.3907L60.7018+68.6835L75.5563+53.8291Z" opacity="1" fill="#9fccaf"/>
</g>
</g>
<path d="M562.99+500C562.942+500+562.893+500+562.846+500C562.58+500+562.341+500+562.183+500L555+500L552.414+500L555.707+500C556.003+500+556.092+500+555.931+500C555.77+500+555.393+500+554.98+500C554.72+500+554.474+500+554.293+500L550.293+500C549.902+500+549.902+500+550.293+500L553.586+500L550.293+500C549.902+500+549.902+500+550.293+500L553.586+500L550.293+500C549.902+500+549.902+500+550.293+500L553.586+500L550.293+500C549.902+500+549.902+500+550.293+500L553.586+500L550.293+500C549.902+500+549.902+500+550.293+500L554.293+500C554.683+500+555.316+500+555.707+500L563+500L565.586+500L562.293+500C562.032+500+561.926+500+562.018+500C562.109+500+562.383+500+562.733+500C563.084+500+563.456+500+563.707+500L567+500L570.293+500C570.544+500+570.916+500+571.266+500C571.617+500+571.891+500+571.982+500C572.073+500+571.968+500+571.707+500L567.824+500C567.76+500+567.682+500+567.594+500L564.414+500L567+500L574.277+500C574.282+500+574.287+500+574.293+500L578.293+500C578.504+500+578.804+500+579.108+500C579.412+500+579.687+500+579.853+500L587+500L589.586+500L586.293+500C586.032+500+585.926+500+586.018+500C586.109+500+586.383+500+586.733+500C587.084+500+587.456+500+587.707+500L591.707+500C592.097+500+592.097+500+591.707+500L588.414+500L591.707+500C592.097+500+592.097+500+591.707+500L588.414+500L591.707+500C592.097+500+592.097+500+591.707+500L588.414+500L591.707+500C592.097+500+592.097+500+591.707+500L588.414+500L591.707+500C592.097+500+592.097+500+591.707+500L587.842+500C587.651+500+587.33+500+586.99+500C586.726+500+586.476+500+586.293+500L579+500L576.414+500L579.707+500C580.003+500+580.092+500+579.931+500C579.77+500+579.393+500+578.98+500C578.72+500+578.474+500+578.293+500L575+500L571.707+500C571.52+500+571.262+500+570.992+500C570.583+500+570.214+500+570.06+500C569.906+500+569.998+500+570.293+500L574.244+500C574.26+500+574.276+500+574.293+500L577.586+500L575+500L567.756+500C567.74+500+567.724+500+567.707+500L563.849+500C563.66+500+563.335+500+562.99+500ZM563+500L565.586+500L565.586+500L562.293+500L555+500L552.416+500L555.707+500L563+500ZM587+500L589.586+500L579+500L576.416+500L579.707+500L587+500ZM567+500L574.293+500L577.586+500L575.002+500L575+500L567.724+500L567.707+500L564.414+500L567+500ZM563+500L565.586+500L562.293+500L555+500L552.416+500L555.707+500L563+500ZM587+500L589.586+500L579+500L576.416+500L579.707+500L587+500ZM567+500L577.586+500L575.002+500L575+500L567.756+500C567.747+500+567.739+500+567.73+500L567.707+500C567.707+500+567.707+500+567.707+500L564.414+500L567+500ZM563+500L565.586+500L562.293+500L555+500L552.416+500L555.707+500L563+500ZM587+500L589.586+500L579+500L576.416+500L579.707+500L587+500ZM567+500L577.586+500L575.002+500L567.756+500C567.751+500+567.745+500+567.74+500L567.707+500L567.707+500L564.414+500L567+500ZM563+500L565.586+500L562.293+500L555+500L552.416+500L555.707+500L563+500ZM587+500L589.586+500L586.398+500C586.317+500+586.245+500+586.185+500L579+500L576.416+500L579.707+500L587+500Z" opacity="1" fill="#43ae68"/>
</g>
</svg>
